<svg width="172" height="48" viewBox="0 0 172 48" fill="none" xmlns="http://www.w3.org/2000/svg">
<path d="M24 48C37.2548 48 48 37.2548 48 24C48 10.7452 37.2548 0 24 0C10.7452 0 0 10.7452 0 24C0 37.2548 10.7452 48 24 48Z" fill="url(#paint0_linear_70_1916)"/>
<path d="M29.6229 13.4991L24.5829 9.62228C24.4782 9.54383 24.3589 9.48723 24.2319 9.45583C24.105 9.42443 23.973 9.41888 23.8439 9.43951C23.7147 9.46014 23.591 9.50653 23.4802 9.57592C23.3693 9.64531 23.2736 9.73628 23.1986 9.84343L12.1774 25.7383C12.0455 25.9204 11.984 26.1441 12.0043 26.368C12.0247 26.592 12.1254 26.8009 12.288 26.9563L21.3737 36.5374C21.4848 36.673 21.6342 36.772 21.8024 36.8214C21.9706 36.8708 22.1498 36.8683 22.3166 36.8143L33.6703 33.8237C33.9157 33.7577 34.1267 33.6007 34.2605 33.3846C34.3942 33.1686 34.4406 32.9097 34.3903 32.6606L29.9554 14.0529C29.9132 13.8349 29.7954 13.6388 29.6229 13.4991ZM27.5734 14.5509L26.2997 16.3783L25.6903 13.4991C25.6346 13.3329 25.8566 13.1666 26.0777 13.278L27.5734 14.442V14.5509ZM23.5886 13.4434L24.696 18.7046L17.2723 29.3383L14.5029 26.4583C14.4543 26.3964 14.4234 26.3225 14.4136 26.2444C14.4038 26.1664 14.4154 26.0871 14.4471 26.0151L23.1977 13.3294C23.3091 13.1666 23.5303 13.2214 23.5886 13.4434ZM26.7429 28.3414C26.7579 28.3888 26.7625 28.4389 26.7563 28.4882C26.7501 28.5375 26.7332 28.5849 26.7069 28.627C26.6806 28.6692 26.6454 28.7051 26.6038 28.7323C26.5622 28.7595 26.5152 28.7773 26.466 28.7846L18.8229 30.9994L18.6566 30.8331L25.2471 21.4183L26.7429 28.3414ZM20.4291 32.6614L28.4006 30.3909C28.6175 30.3266 28.8015 30.1817 28.9149 29.9859C29.0282 29.7901 29.0623 29.5584 29.01 29.3383L26.8534 19.1477L28.3491 16.9877C28.3623 16.9658 28.3822 16.9487 28.4058 16.9389C28.4294 16.9292 28.4556 16.9273 28.4804 16.9335C28.5052 16.9398 28.5273 16.9538 28.5435 16.9736C28.5597 16.9934 28.5691 17.0179 28.5703 17.0434L32.0597 31.8857C32.0708 31.9257 32.0738 31.9674 32.0686 32.0086C32.0635 32.0497 32.0502 32.0894 32.0297 32.1254C32.0091 32.1614 31.9817 32.193 31.9489 32.2184C31.9161 32.2437 31.8786 32.2623 31.8386 32.2731L22.368 34.7657L20.4291 32.6614Z" fill="black" fill-opacity="0.8"/>
<path d="M145.564 17.2663C146.414 17.2427 147.259 17.3885 148.052 17.695C148.844 18.0016 149.567 18.4628 150.18 19.0519C150.792 19.6409 151.281 20.346 151.618 21.1259C151.955 21.9058 152.133 22.7451 152.143 23.5947C152.152 24.4443 151.992 25.2872 151.672 26.0744C151.352 26.8615 150.879 27.5771 150.28 28.1795C149.681 28.7818 148.968 29.2589 148.182 29.5827C147.397 29.9066 146.554 30.0709 145.705 30.066C144.855 30.0972 144.008 29.9564 143.215 29.652C142.421 29.3476 141.697 28.8859 141.086 28.2947C140.475 27.7035 139.99 26.9949 139.66 26.2115C139.33 25.4281 139.161 24.5861 139.165 23.736C139.125 22.8818 139.263 22.0286 139.569 21.2302C139.876 20.4319 140.345 19.7059 140.946 19.0979C141.547 18.4899 142.268 18.0132 143.063 17.698C143.858 17.3827 144.71 17.2357 145.564 17.2663ZM149.503 23.6666C149.519 22.838 149.273 22.0254 148.799 21.3454C148.489 20.7815 148.034 20.3101 147.481 19.9795C146.929 19.6489 146.298 19.471 145.655 19.4638C145.011 19.4567 144.377 19.6206 143.817 19.9388C143.257 20.2571 142.792 20.7182 142.469 21.2751C142.001 22.0586 141.771 22.9617 141.809 23.8737C141.846 24.7857 142.149 25.667 142.68 26.4094C142.978 26.8189 143.359 27.1612 143.798 27.4142C144.237 27.6672 144.724 27.8253 145.228 27.8783C145.731 27.9313 146.241 27.878 146.723 27.7218C147.204 27.5657 147.648 27.3101 148.025 26.9717C148.48 26.5475 148.845 26.0364 149.099 25.4685C149.353 24.9006 149.49 24.2885 149.503 23.6666Z" fill="black" fill-opacity="0.8"/>
<path d="M125.24 26.3383L126.927 27.6746C126.961 27.7136 126.98 27.7635 126.98 27.8151C126.98 27.8668 126.961 27.9167 126.927 27.9557C126.023 28.9453 124.837 29.634 123.53 29.9289C122.222 30.2238 120.856 30.1107 119.614 29.6049C118.373 29.0991 117.316 28.2249 116.587 27.1001C115.858 25.9753 115.491 24.654 115.536 23.3143C115.675 21.9381 116.236 20.6385 117.142 19.5935C118.048 18.5486 119.256 17.8094 120.598 17.4771C122.849 16.9149 125.592 17.7583 126.717 19.3757C126.73 19.3932 126.739 19.4136 126.742 19.4352C126.746 19.4568 126.744 19.4789 126.737 19.4997C126.73 19.5205 126.718 19.5392 126.702 19.5544C126.687 19.5695 126.667 19.5806 126.646 19.5866L125.099 20.9229C125.078 20.9428 125.053 20.9572 125.025 20.9646C124.997 20.972 124.967 20.9722 124.939 20.9651C124.911 20.9581 124.885 20.9441 124.864 20.9244C124.843 20.9048 124.827 20.88 124.818 20.8526C124.748 20.7823 124.748 20.712 124.677 20.6417C124.349 20.2446 123.935 19.9274 123.466 19.7141C122.997 19.5008 122.486 19.397 121.971 19.4105C121.456 19.4241 120.95 19.5546 120.493 19.7923C120.036 20.0299 119.639 20.3685 119.332 20.7823C118.947 21.2224 118.654 21.735 118.47 22.2901C118.286 22.8452 118.215 23.4315 118.26 24.0145C118.306 24.5975 118.468 25.1654 118.737 25.6849C119.005 26.2044 119.375 26.6649 119.824 27.0394C120.507 27.6101 121.382 27.8987 122.271 27.8465C123.16 27.7942 123.995 27.4051 124.606 26.7583C124.755 26.6007 124.92 26.4593 125.098 26.3366C125.099 26.268 125.169 26.268 125.24 26.3383Z" fill="black" fill-opacity="0.8"/>
<path d="M154.286 17.4771H156.396C156.425 17.4732 156.454 17.4759 156.481 17.485C156.509 17.4942 156.533 17.5096 156.554 17.5301C156.574 17.5505 156.59 17.5754 156.599 17.6028C156.608 17.6302 156.611 17.6594 156.607 17.688V27.534C156.603 27.5626 156.606 27.5918 156.615 27.6192C156.624 27.6466 156.639 27.6715 156.66 27.6919C156.68 27.7124 156.705 27.7278 156.733 27.737C156.76 27.7461 156.789 27.7488 156.818 27.7449H162.022C162.051 27.7409 162.08 27.7436 162.107 27.7528C162.135 27.7619 162.16 27.7774 162.18 27.7978C162.201 27.8182 162.216 27.8431 162.225 27.8705C162.234 27.8979 162.237 27.9271 162.233 27.9557V29.5731C162.237 29.6018 162.234 29.6309 162.225 29.6583C162.216 29.6857 162.201 29.7106 162.18 29.7311C162.16 29.7515 162.135 29.7669 162.107 29.7761C162.08 29.7853 162.051 29.788 162.022 29.784H154.215C154.187 29.788 154.158 29.7853 154.13 29.7761C154.103 29.7669 154.078 29.7515 154.057 29.7311C154.037 29.7106 154.022 29.6857 154.012 29.6583C154.003 29.6309 154.001 29.6018 154.005 29.5731V17.688C154.075 17.6177 154.215 17.4771 154.286 17.4771Z" fill="black" fill-opacity="0.8"/>
<path d="M97.6706 29.9974H95.2791C95.2698 29.9977 95.2606 29.996 95.252 29.9926C95.2433 29.9891 95.2355 29.9839 95.2289 29.9774C95.2223 29.9708 95.2172 29.9629 95.2137 29.9543C95.2103 29.9457 95.2086 29.9364 95.2089 29.9271V17.5474C95.2089 17.4771 95.2791 17.4069 95.3494 17.4771C97.4597 19.6577 99.4989 21.7671 101.539 23.8774C101.539 23.9477 101.609 23.9477 101.679 23.8774C103.719 21.7689 105.759 19.6569 107.798 17.4771C107.868 17.4069 107.938 17.4771 107.938 17.5474V29.9254C107.939 29.9347 107.937 29.944 107.933 29.9526C107.93 29.9612 107.925 29.9691 107.918 29.9757C107.912 29.9822 107.904 29.9874 107.895 29.9908C107.887 29.9943 107.877 29.9959 107.868 29.9957H105.548C105.538 29.9959 105.529 29.9943 105.521 29.9908C105.512 29.9874 105.504 29.9822 105.497 29.9757C105.491 29.9691 105.486 29.9612 105.482 29.9526C105.479 29.944 105.477 29.9347 105.477 29.9254V23.3846C105.337 23.3143 105.337 23.3143 105.267 23.3143C104.071 24.51 102.875 25.7057 101.679 26.9717H101.539C100.343 25.776 99.1474 24.5117 97.9517 23.244C97.8814 23.1737 97.8111 23.244 97.8111 23.3143V29.9254C97.7409 29.9254 97.7409 29.9974 97.6706 29.9974Z" fill="black" fill-opacity="0.8"/>
<path d="M86.5577 17.2663C87.407 17.2427 88.2525 17.3885 89.045 17.695C89.8374 18.0016 90.5608 18.4628 91.1731 19.0519C91.7854 19.6409 92.2743 20.346 92.6114 21.1259C92.9484 21.9058 93.1267 22.7451 93.1361 23.5947C93.1454 24.4443 92.9855 25.2872 92.6657 26.0744C92.3459 26.8615 91.8726 27.5771 91.2734 28.1795C90.6741 28.7818 89.961 29.2589 89.1755 29.5827C88.39 29.9066 87.5479 30.0709 86.6983 30.066C85.8433 30.0954 84.9913 29.951 84.1937 29.6416C83.3962 29.3321 82.6697 28.8641 82.0583 28.2657C81.4469 27.6674 80.9633 26.9512 80.6367 26.1605C80.3101 25.3698 80.1473 24.5211 80.1583 23.6657C80.088 20.0091 82.7606 17.3366 86.5577 17.2663ZM82.6894 23.6657C82.7256 24.1159 82.7964 24.5627 82.9011 25.002C83.0592 25.6648 83.3897 26.2741 83.859 26.7681C84.3283 27.2621 84.9199 27.6233 85.5737 27.8151C86.221 27.9986 86.9068 27.997 87.5533 27.8105C88.1998 27.624 88.781 27.2601 89.2311 26.76C89.9422 25.9787 90.3535 24.9708 90.3921 23.9152C90.4307 22.8595 90.0941 21.8242 89.442 20.9931C89.0324 20.4316 88.4694 20.0001 87.8207 19.7506C87.1719 19.5011 86.4649 19.4442 85.7846 19.5866C83.9554 19.9389 82.7606 21.552 82.6894 23.6657Z" fill="black" fill-opacity="0.8"/>
<path d="M64.404 17.196C66.3754 21.3454 68.3426 25.4246 70.3114 29.5037C70.3817 29.574 70.3114 29.6443 70.2411 29.6443H68.8354C68.484 29.6443 67.9911 29.7849 67.7803 29.574C67.4991 29.4334 67.4289 28.9414 67.2883 28.5891C67.0774 28.0971 66.8666 27.6043 66.6557 27.1826C66.6228 27.118 66.5724 27.064 66.5102 27.0267C66.4481 26.9895 66.3767 26.9704 66.3043 26.9717H62.3649C62.2725 26.9597 62.1789 26.9816 62.1013 27.0333C62.0238 27.085 61.9676 27.163 61.9431 27.2529C61.662 27.9566 61.3809 28.5891 61.0989 29.292C61.0474 29.3973 60.9674 29.4861 60.868 29.5482C60.7686 29.6103 60.6538 29.6433 60.5366 29.6434H58.4263C58.2857 29.7146 58.2857 29.574 58.2857 29.5037C60.2571 25.4246 62.2243 21.3454 64.1931 17.196C64.2634 17.1214 64.404 17.1214 64.404 17.196ZM64.1931 22.1186L63 24.7911C63 24.8614 63 24.9317 63.0703 24.9317H65.3889C65.4591 24.9317 65.5294 24.8614 65.4591 24.7911L64.404 22.1186C64.404 21.978 64.2634 21.978 64.1931 22.1186Z" fill="black" fill-opacity="0.8"/>
<path d="M69.8194 19.3757V17.688C69.8218 17.6515 69.8374 17.6171 69.8633 17.5913C69.8891 17.5654 69.9235 17.5498 69.96 17.5474H79.1734C79.2099 17.5498 79.2443 17.5654 79.2701 17.5913C79.296 17.6171 79.3116 17.6515 79.314 17.688V19.446C79.3116 19.4825 79.296 19.5169 79.2701 19.5427C79.2443 19.5686 79.2099 19.5842 79.1734 19.5866H76.0089C75.9724 19.589 75.938 19.6046 75.9121 19.6304C75.8863 19.6563 75.8707 19.6907 75.8683 19.7271V29.6443C75.8659 29.6808 75.8503 29.7151 75.8244 29.741C75.7986 29.7669 75.7642 29.7824 75.7277 29.7849H73.4769C73.4404 29.7824 73.406 29.7669 73.3801 29.741C73.3543 29.7151 73.3387 29.6808 73.3363 29.6443V19.728C73.3339 19.6915 73.3183 19.6571 73.2924 19.6313C73.2666 19.6054 73.2322 19.5898 73.1957 19.5874H70.0303C70.0016 19.5914 69.9723 19.5887 69.9449 19.5795C69.9174 19.5703 69.8924 19.5548 69.872 19.5342C69.8515 19.5137 69.8361 19.4887 69.827 19.4612C69.8179 19.4337 69.8153 19.4044 69.8194 19.3757Z" fill="black" fill-opacity="0.8"/>
<path d="M134.593 17.4069H136.844C136.899 17.4101 136.95 17.4334 136.989 17.4722C137.028 17.5111 137.051 17.5629 137.055 17.6177V28.5189C137.069 29.7925 136.653 31.0337 135.874 32.0418C135.096 33.05 134 33.7662 132.765 34.0749C132.302 34.1846 131.832 34.2551 131.358 34.2857C131.329 34.2897 131.3 34.287 131.273 34.2778C131.245 34.2686 131.221 34.2532 131.2 34.2328C131.18 34.2123 131.164 34.1874 131.155 34.16C131.146 34.1326 131.143 34.1035 131.147 34.0749V32.2466C131.147 32.1763 131.217 32.0357 131.288 32.0357C131.501 32.0471 131.715 32.0234 131.92 31.9654C132.563 31.8064 133.14 31.4492 133.57 30.9444C133.999 30.4396 134.258 29.8127 134.312 29.1523C134.312 28.8711 134.382 28.5197 134.382 28.2377V17.6177C134.385 17.5629 134.409 17.5111 134.447 17.4722C134.486 17.4334 134.538 17.4101 134.593 17.4069Z" fill="black" fill-opacity="0.8"/>
<path d="M110.962 17.4771H113.213C113.25 17.4796 113.284 17.4951 113.31 17.521C113.336 17.5469 113.351 17.5812 113.354 17.6177V29.6443C113.351 29.6808 113.336 29.7151 113.31 29.741C113.284 29.7669 113.25 29.7824 113.213 29.7849H110.962C110.926 29.7824 110.891 29.7669 110.866 29.741C110.84 29.7151 110.824 29.6808 110.822 29.6443V17.6177C110.822 17.5474 110.822 17.4771 110.962 17.4771Z" fill="black" fill-opacity="0.8"/>
<path d="M165.257 19.5866H162.093C162.056 19.5842 162.022 19.5686 161.996 19.5427C161.97 19.5169 161.954 19.4825 161.952 19.446V17.688C161.954 17.6515 161.97 17.6171 161.996 17.5913C162.022 17.5654 162.056 17.5498 162.093 17.5474H171.306C171.342 17.5498 171.377 17.5654 171.403 17.5913C171.429 17.6171 171.444 17.6515 171.447 17.688V19.446C171.444 19.4825 171.429 19.5169 171.403 19.5427C171.377 19.5686 171.342 19.5842 171.306 19.5866H168.141C168.105 19.589 168.071 19.6046 168.045 19.6304C168.019 19.6563 168.003 19.6907 168.001 19.7271V29.6443C167.998 29.6808 167.983 29.7151 167.957 29.741C167.931 29.7669 167.897 29.7824 167.86 29.7849H165.609C165.573 29.7824 165.539 29.7669 165.513 29.741C165.487 29.7151 165.471 29.6808 165.469 29.6443V19.728C165.466 19.6577 165.327 19.5866 165.257 19.5866Z" fill="black" fill-opacity="0.8"/>
<defs>
<linearGradient id="paint0_linear_70_1916" x1="43.5474" y1="42.144" x2="54.7875" y2="-13.7406" gradientUnits="userSpaceOnUse">
<stop stop-color="#FFEA00"/>
<stop offset="1" stop-color="#FFFF56"/>
</linearGradient>
</defs>
</svg>
