<?xml version="1.0" encoding="UTF-8"?>
<svg id="Laag_1" data-name="Laag 1" xmlns="http://www.w3.org/2000/svg" viewBox="0 0 363 229">
  <defs>
    <style>
      .cls-1 {
        fill: #d30059;
      }

      .cls-1, .cls-2 {
        stroke-width: 0px;
      }

      .cls-2 {
        fill: #360c34;
      }
    </style>
  </defs>
  <g>
    <path class="cls-1" d="m324.96,61.48c1.39-3.59,2.09-7.36,2.09-11.24,0-17.25-14.04-31.29-31.29-31.29s-31.28,14.03-31.28,31.29c0,3.85.7,7.64,2.09,11.25-7.13,4.38-13.28,10.44-17.95,17.72-11.62,20.34-31.36,53.86-34.98,57.28l-.23.25c-2.25,2.56-4.64,4.59-4.68,4.62-6.56,5.53-14.53,8.91-23,9.75-.42.03-3.62.22-4.22.22-.61,0-3.81-.19-4.18-.22-8.52-.85-16.49-4.23-23.06-9.77-.02-.01-2.42-2.04-4.61-4.54l-.37-.4c-3.53-3.33-23.29-36.86-35-57.37-4.57-7.12-10.73-13.17-17.85-17.55,1.39-3.62,2.09-7.4,2.09-11.25,0-17.25-14.03-31.29-31.28-31.29s-31.29,14.03-31.29,31.29c0,3.88.7,7.66,2.08,11.24-16.68,10.23-26.61,27.93-26.61,47.54,0,30.78,25.04,55.82,55.82,55.82,18.52,0,35.77-9.16,46.16-24.5l1.37-2.01-7.89-13.22-3.29,5.52c-7.59,12.77-21.52,20.7-36.35,20.7-23.33,0-42.31-18.98-42.31-42.31,0-16.07,8.96-30.57,23.36-37.81.69-.34,1.4-.68,2.12-1,.73-.32,1.46-.62,2.21-.89l6.12-2.27-4.47-4.66c-.48-.52-.92-1.05-1.38-1.69-.36-.46-.71-.99-1.07-1.63-1.55-2.71-2.37-5.76-2.37-8.83,0-9.8,7.98-17.78,17.79-17.78s17.76,7.98,17.76,17.78c0,3.08-.82,6.14-2.37,8.83-.34.6-.71,1.17-1.1,1.71-.39.53-.84,1.07-1.31,1.57l-4.43,4.66,6.06,2.32c.75.27,1.46.56,2.21.9.7.3,1.33.61,2.11.99,7.04,3.54,12.95,8.97,17.07,15.65l28.71,48.02c.57.93,5.65,9.16,8.72,12.14l.08.07c9.21,9.9,21.66,16.1,35.09,17.46.43.05,4.59.29,5.69.29,1.01,0,5.19-.25,5.62-.29,13.42-1.35,25.85-7.54,35.06-17.4l.13-.13c3.06-2.98,8.14-11.21,8.73-12.17l28.67-47.95c4.14-6.72,10.05-12.15,17.05-15.67.83-.4,1.47-.71,2.24-1.04.67-.3,1.39-.59,2.21-.89l6.01-2.3-4.45-4.64c-.47-.5-.93-1.04-1.31-1.57-.4-.56-.77-1.12-1.11-1.72-1.55-2.7-2.37-5.75-2.37-8.83,0-9.8,7.97-17.78,17.76-17.78s17.78,7.98,17.78,17.78c0,3.06-.82,6.12-2.37,8.85-.35.62-.7,1.15-1.17,1.76-.35.5-.79,1.03-1.23,1.5l-4.5,4.71,6.13,2.28c.73.26,1.46.55,2.19.88.71.32,1.42.66,2.09.98,14.42,7.26,23.38,21.75,23.38,37.83,0,23.33-18.98,42.31-42.3,42.31-14.83,0-28.76-7.93-36.35-20.7l-3.29-5.52-7.9,13.22,1.36,2.02c10.39,15.33,27.65,24.5,46.17,24.5,30.77,0,55.82-25.04,55.82-55.82,0-19.61-9.93-37.31-26.62-47.54Z"/>
    <path class="cls-1" d="m145.08,86.77c4.16-6.99,10.2-12.62,17.42-16.26.71-.34,1.41-.68,2.13-.99.71-.32,1.46-.61,2.21-.88l6.06-2.24-4.4-4.68c-.47-.52-.95-1.07-1.37-1.65-.39-.52-.76-1.07-1.11-1.7-.08-.14-.15-.28-.23-.41l-.61-1.41c-.96-2.24-1.45-4.58-1.45-6.98,0-9.8,7.97-17.78,17.76-17.78s17.79,7.98,17.79,17.78c0,2.38-.49,4.73-1.46,6.98l-.47,1.12c-.12.24-.25.48-.39.72-.35.62-.71,1.16-1.12,1.72-.39.54-.86,1.09-1.28,1.55l-4.47,4.75,6.07,2.24c.74.27,1.48.56,2.23.89.7.3,1.4.64,2.06.96,7.26,3.66,13.3,9.29,17.46,16.28l3.27,5.48,7.94-13.13-1.38-2.03c-4.47-6.57-10.34-12.18-16.99-16.29,1.36-3.56,2.08-7.42,2.08-11.24,0-1.16-.06-2.34-.2-3.5l-.43-3.4h-.18c-3.16-14.13-15.73-24.4-30.52-24.4s-27.35,10.27-30.51,24.4h-.24l-.38,3.41c-.13,1.18-.2,2.35-.2,3.49,0,3.81.71,7.67,2.09,11.24-6.67,4.11-12.53,9.73-17,16.29l-1.39,2.03,7.95,13.13,3.26-5.48Z"/>
  </g>
  <g>
    <path class="cls-2" d="m29.32,218.73c-10.99,0-17.9-7.66-17.9-19.88s7.02-19.88,17.78-19.88c7.49,0,12.52,3.16,14.97,9.01l-4.62,2.16c-1.7-4.44-4.85-6.78-10-6.78-7.9,0-13.22,5.73-13.22,15.5s4.97,15.5,12.98,15.5c5.15,0,9.18-2.63,10.88-7.84l4.68,1.75c-2.46,6.61-8.3,10.47-15.56,10.47Z"/>
    <path class="cls-2" d="m64.88,202.12h-9.24v16.02h-4.68v-38.6h14.62c7.84,0,13.04,4.33,13.04,11.29,0,5.5-3.27,9.36-8.54,10.76l10.88,16.55h-5.56l-10.53-16.02Zm-9.24-4.39h9.88c5.5,0,8.19-2.28,8.19-6.9s-2.69-6.9-8.19-6.9h-9.88v13.8Z"/>
    <path class="cls-2" d="m120.03,198.85c0,12.22-6.9,19.88-17.9,19.88s-17.9-7.66-17.9-19.88,6.9-19.88,17.9-19.88,17.9,7.66,17.9,19.88Zm-30.88,0c0,9.71,4.97,15.5,12.98,15.5s12.98-5.79,12.98-15.5-4.97-15.5-12.98-15.5-12.98,5.79-12.98,15.5Z"/>
    <path class="cls-2" d="m139.92,218.15h-5.79l-11.41-38.6h5.03l9.3,34.92,9.12-34.92h5.32l9.12,35.03,9.36-35.03h4.74l-11.35,38.6h-5.79l-6.84-25.03-1.99-8.71h-.06l-1.99,8.71-6.78,25.03Z"/>
    <path class="cls-2" d="m212.09,198.85c0,12.4-7.31,19.3-19.42,19.3h-12.46v-38.6h12.46c12.11,0,19.42,6.9,19.42,19.3Zm-4.91,0c0-9.36-5.21-14.91-14.04-14.91h-8.25v29.83h8.25c8.83,0,14.04-5.56,14.04-14.91Z"/>
    <path class="cls-2" d="m245.31,183.94h-13.45v34.21h-4.68v-34.21h-13.45v-4.39h31.58v4.39Z"/>
    <path class="cls-2" d="m278.53,213.76v4.39h-27.96v-38.6h27.08v4.39h-22.4v12.46h17.43v4.39h-17.43v12.98h23.28Z"/>
    <path class="cls-2" d="m299.64,218.73c-10.99,0-17.9-7.66-17.9-19.88s7.02-19.88,17.78-19.88c7.49,0,12.52,3.16,14.97,9.01l-4.62,2.16c-1.7-4.44-4.85-6.78-10-6.78-7.9,0-13.22,5.73-13.22,15.5s4.97,15.5,12.98,15.5c5.15,0,9.18-2.63,10.88-7.84l4.68,1.75c-2.46,6.61-8.3,10.47-15.56,10.47Z"/>
    <path class="cls-2" d="m351.58,179.55v38.6h-4.68v-17.37h-20.94v17.37h-4.68v-38.6h4.68v16.84h20.94v-16.84h4.68Z"/>
  </g>
</svg>