<svg width="218" height="43" viewBox="0 0 218 43" fill="none" xmlns="http://www.w3.org/2000/svg"><g clip-path="url(#a)"><path d="M87.188 42h1.326v-3.131h3.535V42h1.326v-7.815H92.05v3.491h-3.535v-3.49h-1.326V42zm10.904 0h5.146v-1.192h-3.819v-2.084h2.901V37.53h-2.9v-2.154h3.587v-1.192h-4.915V42zm9.487 0h4.947v-1.192h-3.62v-6.623h-1.327V42zm9.111 0h1.326v-2.788h1.349c.338 0 .65-.032.94-.096.29-.065.547-.161.784-.296a2.11 2.11 0 0 0 .591-.489c.161-.193.29-.43.376-.703.085-.269.134-.575.134-.908 0-.247-.027-.478-.07-.693a2.94 2.94 0 0 0-.209-.612 1.996 1.996 0 0 0-.355-.51 2.29 2.29 0 0 0-.516-.387 2.568 2.568 0 0 0-.676-.247 4.159 4.159 0 0 0-.844-.086h-2.83V42zm1.326-3.985v-2.638h1.311c.473 0 .843.119 1.101.35.258.23.387.553.387.966 0 .409-.134.73-.398.967-.263.237-.655.355-1.181.355h-1.22zm17.744 4.055c.65 0 1.235-.135 1.756-.403a4.023 4.023 0 0 0 1.321-1.08l-.977-.832a3.067 3.067 0 0 1-.929.779c-.36.193-.752.284-1.171.284-.494 0-.935-.112-1.322-.338a2.35 2.35 0 0 1-.907-.95c-.22-.409-.328-.882-.328-1.408 0-.548.108-1.031.322-1.45.215-.42.516-.741.903-.972a2.586 2.586 0 0 1 1.332-.344c.403 0 .789.097 1.155.29.365.193.682.456.945.779l.977-.827a3.946 3.946 0 0 0-3.077-1.499c-.494 0-.956.07-1.381.204a3.523 3.523 0 0 0-1.901 1.44 3.605 3.605 0 0 0-.499 1.106 4.897 4.897 0 0 0-.162 1.273c0 .505.065.967.204 1.397.135.43.323.794.57 1.106.242.312.526.575.859.795.333.22.693.381 1.085.489a4.56 4.56 0 0 0 1.225.16zm7.241-.07h5.146v-1.192h-3.819v-2.084h2.9V37.53h-2.9v-2.154h3.588v-1.192h-4.915V42zm14.643-7.815v5.607h-.027l-3.813-5.607h-1.316V42h1.327v-5.527h.021L157.617 42h1.354v-7.815h-1.327zM165.305 42h1.326v-6.623h2.24v-1.192h-5.785v1.192h2.219V42zm7.682 0h5.145v-1.192h-3.819v-2.084h2.901V37.53h-2.901v-2.154h3.588v-1.192h-4.914V42zm15.325 0l-1.998-2.906v-.021c.542-.15.961-.42 1.262-.817.301-.397.451-.907.451-1.536 0-.29-.038-.564-.102-.822a2.353 2.353 0 0 0-.306-.698 2.182 2.182 0 0 0-.521-.542 2.468 2.468 0 0 0-.758-.35 3.723 3.723 0 0 0-.982-.123h-2.885V42h1.327v-2.788h1.053L186.716 42h1.596zm-4.512-6.623h1.359c.472 0 .843.119 1.101.35.258.236.392.558.392.966 0 .409-.134.73-.403.967-.268.242-.666.36-1.182.36H183.8v-2.643zM213.01 23.482c.807 0 1.534-.1 2.181-.304s1.171-.482 1.575-.838c.403-.356.71-.767.92-1.23.21-.463.314-.961.314-1.495 0-.566-.094-1.058-.277-1.473-.297-.666-.924-1.23-1.881-1.689-.307-.145-1.204-.495-2.689-1.055a15.43 15.43 0 0 1-1.057-.427 6.14 6.14 0 0 1-.801-.44c-.263-.172-.46-.36-.583-.57a1.29 1.29 0 0 1-.187-.69c0-.468.217-.847.647-1.142.43-.294.927-.44 1.484-.44 1.348 0 2.579.47 3.693 1.405l1.197-1.77c-1.394-1.11-2.985-1.664-4.78-1.664-1.317 0-2.415.347-3.289 1.036-.874.69-1.311 1.547-1.311 2.576 0 .479.077.916.231 1.31.153.395.346.729.577 1 .233.272.543.525.934.764.39.24.763.434 1.12.59.357.151.798.313 1.318.485.073.026.187.061.334.107.296.106.517.187.66.236.143.048.33.116.564.204.233.084.407.158.523.216.117.059.257.133.417.224.164.09.281.175.357.249.074.078.154.168.237.269.083.103.14.213.167.33.027.116.043.242.043.378 0 .515-.237.942-.71 1.285-.474.343-1.114.515-1.922.515-.92 0-1.711-.136-2.375-.405a6.3 6.3 0 0 1-1.874-1.204l-1.198 1.703c1.498 1.304 3.316 1.954 5.441 1.954zm-15.491-2.055c-1.394 0-2.522-.446-3.386-1.346-.863-.896-1.294-2.036-1.294-3.414 0-1.48.447-2.673 1.344-3.583.898-.91 2.019-1.365 3.366-1.365.641 0 1.244.129 1.811.385a4.42 4.42 0 0 1 1.458 1.048c.404.44.724.968.961 1.576.237.609.357 1.256.357 1.939 0 .692-.127 1.34-.377 1.938a4.485 4.485 0 0 1-1.011 1.515 4.58 4.58 0 0 1-1.478.96 4.609 4.609 0 0 1-1.751.347zm4.527-18.505v8.906h-.04a5.681 5.681 0 0 0-1.318-1.187 5.839 5.839 0 0 0-1.608-.732 6.615 6.615 0 0 0-1.798-.242 6.92 6.92 0 0 0-2.715.534 6.4 6.4 0 0 0-2.158 1.46 6.797 6.797 0 0 0-1.408 2.223 7.447 7.447 0 0 0-.513 2.77c0 1.01.176 1.942.53 2.8.354.857.834 1.575 1.441 2.16a6.55 6.55 0 0 0 2.165 1.373c.837.33 1.728.495 2.675.495.67 0 1.304-.094 1.901-.278a5.658 5.658 0 0 0 1.621-.79 5.883 5.883 0 0 0 1.281-1.242h.04v2.136h2.215V2.922h-2.311zm-17.609 20.386h2.298V2.922h-2.298v20.386zm-3.526-13.641c-.937 0-1.795.217-2.572.657-.777.437-1.424 1.055-1.944 1.857h-.057V9.83h-2.312v13.475h2.312v-6.498c0-.903.167-1.702.5-2.405a3.913 3.913 0 0 1 1.465-1.663c.64-.405 1.394-.608 2.258-.608.28 0 .584.012.92.038V9.696c-.11-.02-.3-.03-.57-.03zm-17.582 11.747c-.937 0-1.778-.217-2.522-.647a4.515 4.515 0 0 1-1.721-1.75 4.954 4.954 0 0 1-.607-2.428c0-.893.2-1.709.6-2.447a4.475 4.475 0 0 1 1.715-1.757c.744-.434 1.588-.65 2.535-.65.891 0 1.701.204 2.432.608.73.405 1.307.98 1.734 1.725.427.744.641 1.582.641 2.521 0 .929-.214 1.76-.641 2.502a4.481 4.481 0 0 1-1.741 1.715 4.946 4.946 0 0 1-2.425.608zm0 2.068c1.358 0 2.578-.288 3.662-.864a6.345 6.345 0 0 0 2.556-2.446c.617-1.056.927-2.25.927-3.583 0-1.343-.31-2.544-.927-3.602a6.358 6.358 0 0 0-2.556-2.453c-1.087-.576-2.308-.864-3.662-.864-1.057 0-2.038.178-2.939.534-.9.356-1.661.841-2.278 1.46a6.62 6.62 0 0 0-1.448 2.203 7.154 7.154 0 0 0-.523 2.725c0 .965.173 1.868.523 2.712a6.663 6.663 0 0 0 1.448 2.191c.617.618 1.378 1.104 2.278 1.46.901.35 1.878.527 2.939.527zm-9.553-19.844l-5 15.747h-.057l-4.557-15.747h-2.688l-4.583 15.708h-.057l-4.987-15.705h-2.662l6.478 19.667h2.395l4.75-16.114h.057l4.68 16.114h2.395l6.477-19.667h-2.641v-.003zm-30.431 5.867c-.817 0-1.588.162-2.312.485a5.616 5.616 0 0 0-1.908 1.405h-.027V9.76h-4.459v13.543h4.459v-6.796c0-.686.111-1.265.327-1.744.217-.48.517-.829.898-1.055.38-.227.827-.337 1.337-.337.521 0 .934.084 1.248.25.31.164.553.462.724.893.173.427.256 1.006.256 1.738v7.055h4.46v-8.123c0-1.036-.12-1.93-.363-2.677-.241-.747-.591-1.34-1.051-1.77a4.185 4.185 0 0 0-1.568-.939c-.584-.194-1.261-.294-2.021-.294zm-10.631 0c-.51 0-1.007.078-1.491.236a5.043 5.043 0 0 0-1.371.696c-.43.307-.824.686-1.177 1.136h-.057V9.76h-4.46v13.543h4.46V17.22c0-.595.117-1.123.357-1.582.237-.46.6-.822 1.087-1.088.487-.265 1.074-.398 1.761-.398.427 0 .778.01 1.045.026v-4.66a.577.577 0 0 0-.154-.013zM94.071 19.75c-.874 0-1.587-.295-2.145-.887-.557-.589-.837-1.36-.837-2.304 0-.955.284-1.731.85-2.324.568-.595 1.282-.893 2.146-.893.547 0 1.047.14 1.497.411.45.275.804.657 1.058 1.149.257.492.383 1.042.383 1.657 0 .945-.283 1.715-.85 2.304-.564.592-1.264.887-2.102.887zm2.772-9.99v1.433h-.056c-.995-1.126-2.275-1.69-3.847-1.69a6.164 6.164 0 0 0-4.543 1.962c-.567.612-1.014 1.36-1.337 2.236a8.168 8.168 0 0 0-.487 2.845c0 1.036.163 1.99.487 2.864.327.874.777 1.612 1.35 2.217a6.17 6.17 0 0 0 2.092 1.42 6.773 6.773 0 0 0 2.645.515c1.681 0 2.972-.573 3.873-1.715h.057v1.46h4.236V9.76h-4.47zM78.16 12.964c.437 0 .83.085 1.184.256.354.172.64.414.864.731.224.314.387.693.487 1.136l-5.223.026c.14-.686.45-1.213.934-1.589.483-.372 1.067-.56 1.754-.56zm6.912 3.447c0-1.324-.294-2.515-.884-3.57a6.246 6.246 0 0 0-2.472-2.46c-1.057-.585-2.258-.876-3.596-.876a7.524 7.524 0 0 0-2.835.527 6.74 6.74 0 0 0-2.248 1.447c-.624.612-1.111 1.356-1.471 2.23a7.4 7.4 0 0 0-.537 2.825c0 1.03.187 1.98.557 2.858.37.877.877 1.621 1.517 2.23a6.854 6.854 0 0 0 2.305 1.427 7.98 7.98 0 0 0 2.876.514c1.384 0 2.611-.236 3.679-.709 1.067-.472 1.918-1.097 2.548-1.873l-2.368-2.583c-.967 1.09-2.095 1.634-3.386 1.634-.827 0-1.544-.204-2.151-.614-.607-.412-.99-.984-1.15-1.725h9.502c.077-.528.114-.955.114-1.282zm-27.873 6.896h13.293v-4.122h-8.5V3.637H57.2v19.67z" fill="#000"/><path fill-rule="evenodd" clip-rule="evenodd" d="M27.15 2.15l14.956 14.514c4.896 4.75.178 9.5.008 9.671l-.005.005-14.96 14.515c-4.987 4.838-9.973 0-9.973 0L2.216 26.34c-4.987-4.838 0-9.676 0-9.676l14.96-14.515c4.986-4.838 9.973 0 9.973 0zm.57 7.432a.13.13 0 0 1 .093-.035.118.118 0 0 0-.094.035zm10.323 14l1.921-1.864s.224-.216.004-.44l-1.805-1.75s-.013-.013-.033-.026a2.228 2.228 0 0 1-.044-.044l-.043-.044-.213-.207s-2.149-2.084-4.297 0l-2.468 2.395s-2.148 2.084 0 4.168l.213.207s2.148 2.084 4.297 0l1.46-1.417 1.008-.977zM34.52 16.35c.05.02.107.013.147-.025.054-.049.054-.13-.003-.185a.027.027 0 0 0-.007-.007l-.917-.89-.09-.087-.45-.437-.01-.01-1.792-1.737s-.013-.013-.033-.026l-.008-.009c-.027-.029-.051-.055-.079-.082l-.213-.207s-2.148-2.084-4.297 0l-6.978 6.77s-2.148 2.085 0 4.169l.214.207s2.148 2.084 4.296 0L30.268 18l1.01-.98c1.208-1.172 2.415-1.023 3.242-.67zm-6.76-6.56c.05.02.106.014.146-.025a.13.13 0 0 0-.003-.185l-.02-.013a.199.199 0 0 1-.01-.006l.011.006a.063.063 0 0 1 .015.01l-.92-.893-.09-.088-.45-.436-.01-.01-1.792-1.741s-.013-.013-.033-.026l-.008-.009a2.105 2.105 0 0 0-.079-.082l-.213-.207s-2.149-2.084-4.297 0l-6.978 6.77s-2.148 2.085 0 4.169l.213.207s2.149 2.084 4.297 0l5.967-5.793 1.011-.977c1.207-1.172 2.415-1.023 3.242-.67zm-5.832 20.243L10.774 19.21s-2.148-2.084-4.296 0l-.214.207-.08.091a.13.13 0 0 1-.016.013l-.017.013-1.805 1.75s-.226.218 0 .438l1.922 1.864 1.007.977 12.739 12.35s2.145 2.084 4.293 0l.017-.017.196-.19.797-.774.02-.02 2.682-2.601 1.008-.978 1.921-1.864s.227-.217 0-.437l-1.805-1.75s-.013-.013-.033-.026a1.982 1.982 0 0 1-.087-.088l-.213-.207s-2.148-2.084-4.296 0l-2.139 2.075c-.223.21-.447-.004-.447-.004z" fill="#000"/><path stroke="#333" d="M57 38.5h22M196 38.5h22"/></g><defs><clipPath id="a"><path fill="#fff" d="M0 0h218v43H0z"/></clipPath></defs></svg>