<?xml version="1.0" encoding="UTF-8"?><svg id="Layer_1" xmlns="http://www.w3.org/2000/svg" width="1600" height="480" viewBox="0 0 1600 480"><path d="M1156.05,300.41c-34.82,40.4-72.75,72.66-115.38,98.54-86.94,52.77-193.68,78.42-326.17,78.42s-239.28-25.65-326.22-78.42c-44.4-26.94-83.66-60.73-119.68-103.53,14.25-4.93,27.32-11.96,38.85-20.79,77.38,88.42,195.33,159.58,407.05,159.58,196.95,0,312.78-61.6,390.23-141.37,11.11,5.35,24.32,8.27,39.1,8.27,4.21,0,8.29-.23,12.21-.7Z" fill="#103743"/><path d="M392.43,206.65V78.42h44.19v115.21c0,28.8,18.54,48.14,46.95,48.14,29.99,0,50.11-19.73,50.11-48.93v-114.42h44.19v140.07c0,11.44,7.1,18.54,18.54,18.54h3.94v42.61h-13.02c-26.43,0-43.4-10.26-50.11-29.2-15.39,22.1-38.67,33.93-67.87,33.93-46.16,0-76.94-30.78-76.94-77.73Z" fill="#103743"/><path d="M618.22,179.03c0-59.97,46.16-105.35,107.33-105.35s107.72,45.38,107.72,105.75c0,5.52-.4,11.44-1.19,16.57h-166.51c6.71,29.2,30.38,48.53,61.95,48.53,23.28,0,43.4-10.26,53.66-25.65h48.93c-16.18,39.06-55.63,65.5-103.38,65.5-62.34,0-108.51-45.37-108.51-105.35ZM665.96,159.7h119.95c-6.71-27.62-30.38-46.16-60.37-46.16s-52.48,18.15-59.58,46.16Z" fill="#103743"/><path d="M860.06,220.46h44.98c0,15.39,14.6,25.65,35.91,25.65,19.73,0,32.74-9.08,32.74-21.7,0-36.3-110.47-16.18-110.47-87.59,0-39.06,31.17-63.13,75.76-63.13s76.55,24.86,76.55,61.16h-44.98c0-13.81-13.02-23.28-31.96-23.28s-30.77,8.29-30.77,20.52c0,35.11,110.87,15.78,110.87,87.59,0,39.06-31.17,64.71-78.12,64.71s-80.49-26.04-80.49-63.92Z" fill="#103743"/><path d="M1238.57,78.42h44.19v33.54c15.79-22.88,39.06-36.69,67.47-36.69h7.1v45.37h-7.1c-42.62,0-67.47,24.07-67.47,61.16v97.85h-44.19V78.42Z" fill="#103743"/><path d="M1364.05,179.03c0-59.97,42.22-105.35,99.03-105.35,29.6,0,54.06,12.63,70.63,33.54v-28.8h44.19v140.07c0,11.44,6.71,18.54,18.54,18.54h3.55v42.61h-12.63c-27.62,0-44.98-11.05-50.9-31.96-16.97,22.89-42.62,36.7-73.4,36.7-56.81,0-99.03-45.37-99.03-105.35ZM1533.71,179.03c0-35.51-26.43-62.74-61.94-62.74s-62.34,27.22-62.34,62.74,26.44,62.74,62.34,62.74,61.94-27.22,61.94-62.74Z" fill="#103743"/><path d="M144.26,81.87c-5.98,7.34-10.91,15.6-14.43,24.66H49.37v-24.66h94.89Z" fill="#ff505d"/><rect y="81.85" width="24.67" height="24.67" fill="#ff505d"/><path d="M122.92,143.52c0,4.19.25,8.32.74,12.33h-49.63v-24.66h49.63c-.49,4.01-.74,8.14-.74,12.33Z" fill="#ff505d"/><path d="M144.26,205.18H49.37v-24.66h80.46c3.51,9.06,8.45,17.33,14.43,24.66Z" fill="#ff505d"/><rect x="24.67" y="131.19" width="24.67" height="24.67" fill="#ff505d"/><rect y="180.53" width="24.67" height="24.67" fill="#ff505d"/><path d="M1076.75,221.25v-102.59h-33.93v-40.24h20.51c10.26,0,15.79-5.52,15.79-15.78V23.97h41.82v54.45h65.89v40.24h-65.89v98.25c0,13.41,9.08,22.1,22.89,22.1s22.89-9.47,22.89-25.25h39.46c0,40.24-25.25,65.89-65.5,65.89s-63.92-23.28-63.92-58.4Z" fill="#103743"/><path d="M361.04,142.72c0,80.09-61.54,140.02-143.23,140.02-46.98,0-87.49-20.29-113.32-52.9h71.58c12.45,5.92,26.64,9.18,41.74,9.18,1.99,0,3.96-.06,5.91-.17-7.08-10.67-13.99-21.72-21.06-33.68l37.18-22.01c8.67,14.67,17.49,28.71,27.24,42.86,27.86-16.27,45.87-46.45,45.87-82.5,0-54.44-41.07-95.51-95.14-95.51-15.1,0-29.29,3.27-41.74,9.19h-73.68C128.1,23.47,169.53,2.63,217.81,2.63c81.69,0,143.23,60,143.23,140.09Z" fill="#103743"/></svg>