<?xml version="1.0" encoding="UTF-8"?>
<svg xmlns="http://www.w3.org/2000/svg" xmlns:xlink="http://www.w3.org/1999/xlink" version="1.1" viewBox="0 0 5160 1744">
  <defs>
    <style>
      .cls-1, .cls-2, .cls-3 {
        fill: none;
      }

      .cls-4 {
        font-family: Arial-BoldMT, Arial;
        font-size: 208px;
        font-weight: 700;
      }

      .cls-4, .cls-5 {
        isolation: isolate;
      }

      .cls-4, .cls-6 {
        fill: #fff;
      }

      .cls-2 {
        stroke: #cf4145;
        stroke-dasharray: 2.2;
        stroke-width: .3px;
      }

      .cls-7, .cls-8 {
        fill: #cf4145;
      }

      .cls-3 {
        stroke: #e9535c;
        stroke-width: .3px;
      }

      .cls-8 {
        mix-blend-mode: multiply;
        opacity: .1;
      }

      .cls-9, .cls-10 {
        fill-rule: evenodd;
      }

      .cls-9, .cls-11 {
        fill: #b22227;
      }

      .cls-12 {
        fill: #c24145;
      }

      .cls-13 {
        fill: #e9535c;
      }

      .cls-14 {
        clip-path: url(#clippath);
      }
    </style>
    <clipPath id="clippath">
      <path class="cls-1" d="M1036.5,214.9c-53.8-53.3-165.2-49.2-251-35.9l-2.6-7.6c-.6-4.5-11.8-6.8-24.9-5.1-13.2,1.8-23.4,6.8-22.8,11.3l-.4,10,19.2-3.1c-48.6,9.3-83,19.8-83,19.8-32.7,10.8-65,25.6-93,45.7-47.2,33.9-81.7,80-103.4,133.7-23.9,59.5-10.1,115.7-1.5,176.7,2.9,20.7,3.8,40.8,1.6,61.6-.7,7-4.5,21.1-3.1,31.5-.8,1.5-1.4,3.1-1.9,4.7,0,0-132.4,198.2-132.9,198.9,1.2-1.8,2.5-3.4,3.8-5-1.3,1.6-2.6,3.3-3.8,5-8,11.4-13.1,29.7-7,43.2,15.7,34.9,53.1,16.8,72.3-.2,11.1-9.8,20.2-21.7,27.5-34.8,1.3-2.2,5.5-13.2,10-25.2,20.8,6.3,41.1,14.5,57.5,19.2,37.6,10.9,75.2,23.1,113,32.7,0,0,147.9,37.3,238.8-61.9,0,0,122.6-155.3,153.2-238.1.3-.2.6-.3.6-.3,51.3-29.9,110.3-46.3,167.8-58.2,8.6-2.1,13.7-3.3,13.7-3.3-56.6-272.8-148-315.3-148-315.3Z"/>
    </clipPath>
  </defs>
  <!-- Generator: Adobe Illustrator 28.7.4, SVG Export Plug-In . SVG Version: 1.2.0 Build 166)  -->
  <g class="cls-5">
    <g id="Layer_1">
      <g id="Layer_1-2" data-name="Layer_1">
        <path id="Layer" class="cls-1" d="M0,0"/>
        <g id="Layer-2" data-name="Layer">
          <path id="Layer-3" data-name="Layer" class="cls-6" d="M1034.8,996.7l196,362.3h-191.3c-23.8-63.4-56.1-137.2-96.8-221.6-40.8-84.3-76.2-156.6-106.3-216.8,31.7,4.8,55.4,7.1,71.3,7.1,49.9,0,91.7-11.7,125.3-35,33.7-23.4,50.5-58.8,50.5-106.3s-14.4-68.7-43.3-82.6c-28.9-13.9-66.3-20.8-112.3-20.8s-79.6,2-127.1,5.9c-11.9,335-18.2,558.4-19,670h-179.4c22.2-224.9,34-489,35.6-792.4h357.6c49.1,0,92.1,6,128.9,17.8,36.8,11.9,67.5,32.9,92.1,63,24.5,30.1,36.8,68.9,36.8,116.4,0,126.7-72.9,204.3-218.6,232.8Z"/>
          <path id="Layer-4" data-name="Layer" d="M1387.6,566.6h578.6l-5.9,130.7c-60.2-3.2-127.9-4.8-203.2-4.8h-193.6l-9.5,206.7h190.1c15.8,0,41-.8,75.4-2.4,34.4-1.6,62-2.4,82.6-2.4l-7.1,121.2h-348.1l-9.5,217.4h232.8c44.3,0,100.2-2.4,167.5-7.1l-7.1,133.1h-579.8c10.3-72.9,19-198.2,26.1-376,7.1-177.8,10.7-316.6,10.7-416.4Z"/>
          <path id="Layer-5" data-name="Layer" class="cls-10" d="M2118.2,566.6h388.5c109.3,0,197.2,29.1,263.7,87.3,66.5,58.2,99.8,149.5,99.8,273.8s-37.4,234.2-112.3,313.1c-74.8,78.8-185.9,118.2-333.2,118.2h-342.1c23.8-247.1,35.6-511.2,35.6-792.4ZM2285.7,692.5l-22.6,540.5h127.1c57,0,106.3-8.7,147.9-26.1,41.6-17.4,73.9-41.2,96.8-71.3,23-30.1,39.6-62.6,49.9-97.4,10.3-34.8,15.5-72.5,15.5-112.9s-3.4-56.8-10.1-82.6c-6.7-25.7-17.8-50.3-33.3-73.7-15.4-23.4-37.6-42-66.5-55.8-28.9-13.9-63.2-20.8-102.8-20.8h-201.9Z"/>
          <path id="Layer-6" data-name="Layer" d="M3634.1,574.9l7.1,136.6c-75.2-22.2-137.8-33.3-187.7-33.3-91.9,0-167.1,27.3-225.7,82-58.6,54.7-87.9,127.5-87.9,218.6s25.5,150.7,76.6,197.8c51.1,47.1,119.4,70.7,204.9,70.7s125.9-11.5,206.7-34.4l-21.4,139c-82.4,14.2-153.6,21.4-213.8,21.4-123.6,0-226.5-33.4-308.9-100.4-82.4-66.9-123.6-161.8-123.6-284.5s43.2-245.9,129.5-322c86.3-76,199.6-114,339.8-114,58.6,0,126.7,7.5,204.4,22.6Z"/>
          <path id="Layer-7" data-name="Layer" d="M4059.4,1260.4l-29.7,102.2c-35.7,7.1-72.1,10.7-109.3,10.7s-83-5.9-113.4-17.8c-30.5-11.9-52.1-27.5-64.8-46.9-12.7-19.4-21.4-37-26.1-52.9-4.8-15.8-7.1-32.5-7.1-49.9,0-37.2,10.3-69.1,30.9-95.6,20.6-26.5,46.3-45.9,77.2-58.2,30.9-12.3,64.5-23.4,101-33.3,36.4-9.9,70.1-18,101-24.4,30.9-6.3,56.6-16.2,77.2-29.7,20.6-13.5,30.9-30.1,30.9-49.9,0-43.6-36.1-65.3-108.1-65.3s-145.3,16.6-231.7,49.9l17.8-110.5c95.8-23,181.4-34.5,256.6-34.5,153.6,0,230.5,51.5,230.5,154.4s-3.4,84-10.1,190.1c-6.7,106.1-10.1,192.9-10.1,260.2h-165.1c4.8-42.8,11.5-144.5,20.2-305.3-12.7,11.1-34.7,21.8-66,32.1-31.3,10.3-60.6,19-87.9,26.1-27.3,7.1-51.9,18.8-73.7,35-21.8,16.2-32.7,36.6-32.7,61.2,0,46.7,33.2,70.1,99.8,70.1s59.4-5.9,92.7-17.8Z"/>
          <path id="Layer-8" data-name="Layer" class="cls-10" d="M4585.7,1278.2l-9.5,346.9h-169.9c23-283.5,35.6-562.7,38-837.5,116.4-22.2,215.4-33.3,297-33.3s99.6,6.9,139.6,20.8,71.1,31.1,93.3,51.7c22.2,20.6,40,45.3,53.5,74.2,13.5,28.9,22.2,55.4,26.1,79.6,3.9,24.2,5.9,49.7,5.9,76.6,0,87.1-23.2,161.6-69.5,223.3-46.3,61.8-111.9,92.7-196.6,92.7s-156.4-31.7-205.5-95h-2.4ZM4733,870.7c-34.1,0-76.4,7.9-127.1,23.8-7.9,56.2-11.9,122.4-11.9,198.4s14.4,84.8,43.4,116.4c28.9,31.7,64.3,47.5,106.3,47.5s86.5-20.8,112.3-62.4c25.7-41.6,38.6-88.5,38.6-140.8s-13.5-99.8-40.4-133c-26.9-33.3-67.3-49.9-121.2-49.9Z"/>
        </g>
        <g id="Layer-9" data-name="Layer">
          <path id="Layer-10" data-name="Layer" class="cls-11" d="M844.7,1527l35.1,65h-34.3c-4.3-11.4-10-24.6-17.4-39.7-7.3-15.1-13.7-28.1-19.1-38.9,5.7.9,9.9,1.3,12.8,1.3,9,0,16.4-2.1,22.5-6.3,6-4.2,9-10.6,9-19.1s-2.6-12.3-7.8-14.8c-5.2-2.5-11.9-3.7-20.1-3.7s-14.3.4-22.8,1.1c-2.1,60.1-3.3,100.1-3.4,120.1h-32.2c4-40.3,6.1-87.7,6.4-142.1h64.1c8.8,0,16.5,1.1,23.1,3.2,6.6,2.1,12.1,5.9,16.5,11.3,4.4,5.4,6.6,12.4,6.6,20.9,0,22.7-13.1,36.6-39.2,41.8Z"/>
          <path id="Layer-11" data-name="Layer" class="cls-10" d="M1002.9,1540.7h-76.2v3.4c0,9.7,3,17.2,8.9,22.7,6,5.5,13.9,8.2,23.7,8.2s20.9-2.3,35.3-6.8l-3.8,22.4c-11.9,2.7-23.4,4.1-34.5,4.1s-19.4-1.4-27-4.2c-7.7-2.8-13.5-6-17.5-9.8-4-3.8-7.1-8.2-9.5-13.4-2.4-5.2-3.8-9.6-4.4-13.2-.6-3.6-.9-7.3-.9-11.2s.4-9.1,1.1-13.6c.7-4.5,2.3-9.7,4.8-15.4,2.5-5.8,5.7-10.8,9.7-15,4-4.3,9.6-7.8,16.8-10.8,7.2-2.9,15.6-4.4,25.1-4.4,15,0,27.1,3.8,36.1,11.4,9,7.6,13.5,18.7,13.5,33.3s-.4,7.8-1.3,12.4ZM927.5,1526.4h48.3c0-8.5-1.7-14.8-5.1-19-3.4-4.1-9-6.2-16.8-6.2s-13.2,2.4-17.9,7.1c-4.7,4.8-7.5,10.8-8.5,18Z"/>
          <path id="Layer-12" data-name="Layer" d="M1017.6,1590.1l-2.3-23c12.8,5.2,22.9,7.9,30.5,7.9s8-.8,11.3-2.6c3.3-1.7,4.9-4.5,4.9-8.5s-2.1-6.9-6.3-10.9c-4.2-4-8.8-7.7-13.8-11.1-5-3.4-9.7-7.7-13.8-13-4.2-5.2-6.3-10.6-6.3-16.2,0-9.1,3.3-16.2,9.9-21.4,6.6-5.2,16.7-7.8,30.3-7.8s19.2,1.1,31.5,3.4l1.3,21.7c-8.7-3.7-16.4-5.5-23.2-5.5s-9.7.7-12.9,2c-3.2,1.4-4.8,4.1-4.8,8.2s2.1,6.2,6.3,10.1c4.2,3.9,8.8,7.6,13.8,11.2,5,3.6,9.7,8.1,13.9,13.7,4.2,5.6,6.3,11.4,6.3,17.4s-2.4,12.5-7.1,17c-4.8,4.6-10.2,7.6-16.2,9.3-6,1.6-12.4,2.5-19.1,2.5-9.8,0-21.2-1.5-34.1-4.5Z"/>
          <path id="Layer-13" data-name="Layer" class="cls-10" d="M1217.4,1540.7h-76.2v3.4c0,9.7,3,17.2,8.9,22.7,6,5.5,13.8,8.2,23.7,8.2s20.9-2.3,35.3-6.8l-3.8,22.4c-11.9,2.7-23.4,4.1-34.5,4.1s-19.4-1.4-27.1-4.2c-7.7-2.8-13.5-6-17.5-9.8-4-3.8-7.1-8.2-9.5-13.4-2.3-5.2-3.8-9.6-4.4-13.2-.6-3.6-.8-7.3-.8-11.2s.3-9.1,1.1-13.6c.7-4.5,2.3-9.7,4.8-15.4,2.5-5.8,5.7-10.8,9.7-15,4-4.3,9.6-7.8,16.8-10.8,7.2-2.9,15.6-4.4,25.1-4.4,15,0,27.1,3.8,36.1,11.4s13.5,18.7,13.5,33.3-.4,7.8-1.3,12.4ZM1142,1526.4h48.3c0-8.5-1.7-14.8-5.1-19-3.4-4.1-9-6.2-16.8-6.2s-13.2,2.4-17.9,7.1c-4.7,4.8-7.5,10.8-8.5,18Z"/>
          <path id="Layer-14" data-name="Layer" d="M1291.3,1574.3l-5.3,18.3c-6.4,1.3-12.9,1.9-19.6,1.9s-14.9-1.1-20.3-3.2c-5.5-2.1-9.3-4.9-11.6-8.4-2.3-3.5-3.8-6.6-4.7-9.5-.8-2.8-1.3-5.8-1.3-8.9,0-6.7,1.8-12.4,5.5-17.1,3.7-4.8,8.3-8.2,13.8-10.4,5.5-2.2,11.6-4.2,18.1-6,6.5-1.8,12.6-3.2,18.1-4.4,5.5-1.1,10.2-2.9,13.8-5.3,3.7-2.4,5.5-5.4,5.5-8.9,0-7.8-6.5-11.7-19.4-11.7s-26.1,3-41.5,8.9l3.2-19.8c17.2-4.1,32.5-6.2,46-6.2,27.5,0,41.3,9.2,41.3,27.7s-.6,15.1-1.8,34.1c-1.2,19-1.8,34.6-1.8,46.7h-29.6c.9-7.7,2.1-25.9,3.6-54.7-2.3,2-6.2,3.9-11.8,5.8s-10.9,3.4-15.8,4.7c-4.9,1.3-9.3,3.4-13.2,6.3-3.9,2.9-5.9,6.6-5.9,11,0,8.4,6,12.6,17.9,12.6,5.1,0,10.7-1.1,16.6-3.2Z"/>
          <path id="Layer-15" data-name="Layer" d="M1387.4,1486.1l-.6,14.3h.4c7.1-11.2,16.6-16.8,28.5-16.8s5.9.4,9.2,1.1l.8,24.9c-4.3-1.4-8.1-2.1-11.5-2.1-7.4,0-13.3,2.2-17.9,6.6-4.5,4.4-7.6,10.5-9.2,18.3-1.7,8.4-2.6,23.8-2.6,46.4v13.2h-29.6c2.7-42.3,4.1-77.6,4.1-105.9h28.3Z"/>
          <path id="Layer-16" data-name="Layer" d="M1520.7,1567.7l-3.6,23.2c-9.9,2.4-19.7,3.6-29.4,3.6-16.9,0-29.9-4.6-39.1-13.7-9.2-9.2-13.7-22.2-13.7-39.1s0-4.1,0-6c0-1.8.5-4.9,1.3-9.2s1.8-8.1,3.1-11.4c1.3-3.3,3.3-7.1,6.2-11.3,2.8-4.2,6.2-7.7,10-10.4,3.8-2.8,8.8-5.1,15-7,6.2-1.9,13.2-2.9,21-2.9s21.3,1.4,31.1,4.1l1.7,23c-10.2-3.4-19.4-5.1-27.5-5.1s-18.5,3.2-24.1,9.7c-5.5,6.5-8.3,15-8.3,25.7s2.6,17.7,7.7,23.3c5.1,5.6,12.6,8.4,22.6,8.4s16.5-1.6,26-4.9Z"/>
          <path id="Layer-17" data-name="Layer" d="M1548.4,1449.9h30.5c-2,28.3-3.1,46.1-3.4,53.7l.4.4c7.7-13.6,21.6-20.5,41.8-20.5s39.6,11.2,39.6,33.7-.5,12.8-1.5,30.2c-1,17.5-1.5,32.3-1.5,44.5h-31.5c3.3-24.1,4.9-44.7,4.9-61.8s-7.5-22.8-22.6-22.8-14.4,2.6-19.3,7.7-8.1,11.8-9.7,20c-1.8,9.5-3.1,28.5-3.6,56.9h-30.5c3.8-47.3,6-94.6,6.4-142.1Z"/>
          <path id="Layer-18" data-name="Layer" class="cls-11" d="M1754.4,1449.9h103.7l-1.1,23.4c-10.8-.6-22.9-.8-36.4-.8h-34.7l-1.7,37.1h34.1c2.8,0,7.3-.1,13.5-.4,6.2-.3,11.1-.4,14.8-.4l-1.3,21.7h-62.4l-1.7,39h41.8c8,0,18-.4,30-1.3l-1.3,23.9h-103.9c1.8-13.1,3.4-35.5,4.7-67.4,1.3-31.9,1.9-56.8,1.9-74.7Z"/>
          <path id="Layer-19" data-name="Layer" d="M1908.2,1592h-30.5c3.8-55.9,6.1-103.3,6.8-142.1h30.7c-2.8,37.8-5.2,85.1-7,142.1Z"/>
          <path id="Layer-20" data-name="Layer" class="cls-10" d="M2038.5,1540.7h-76.2v3.4c0,9.7,3,17.2,8.9,22.7,6,5.5,13.8,8.2,23.6,8.2s20.9-2.3,35.4-6.8l-3.8,22.4c-11.9,2.7-23.4,4.1-34.5,4.1s-19.4-1.4-27-4.2c-7.7-2.8-13.5-6-17.5-9.8-4-3.8-7.1-8.2-9.5-13.4-2.3-5.2-3.8-9.6-4.4-13.2-.6-3.6-.8-7.3-.8-11.2s.3-9.1,1.1-13.6c.7-4.5,2.3-9.7,4.8-15.4,2.5-5.8,5.7-10.8,9.7-15,4-4.3,9.6-7.8,16.8-10.8,7.2-2.9,15.6-4.4,25.1-4.4,15,0,27.1,3.8,36.1,11.4s13.5,18.7,13.5,33.3-.4,7.8-1.3,12.4ZM1963.1,1526.4h48.3c0-8.5-1.7-14.8-5.1-19-3.4-4.1-9-6.2-16.8-6.2s-13.2,2.4-17.9,7.1c-4.7,4.8-7.5,10.8-8.5,18Z"/>
          <path id="Layer-21" data-name="Layer" d="M2138,1567.7l-3.6,23.2c-9.9,2.4-19.7,3.6-29.4,3.6-16.9,0-29.9-4.6-39.1-13.7-9.2-9.2-13.7-22.2-13.7-39.1s0-4.1.1-6,.5-4.9,1.3-9.2,1.8-8.1,3.1-11.4c1.3-3.3,3.3-7.1,6.2-11.3,2.8-4.2,6.2-7.7,10-10.4,3.8-2.8,8.8-5.1,15-7,6.2-1.9,13.2-2.9,21-2.9s21.3,1.4,31.1,4.1l1.7,23c-10.2-3.4-19.4-5.1-27.5-5.1s-18.5,3.2-24.1,9.7c-5.5,6.5-8.3,15-8.3,25.7s2.6,17.7,7.7,23.3c5.1,5.6,12.6,8.4,22.6,8.4s16.5-1.6,26-4.9Z"/>
          <path id="Layer-22" data-name="Layer" d="M2224.7,1507h-26.6c-.1,1.7-.4,6.4-.9,14.2-.4,7.7-.8,14.9-1.1,21.4-.3,6.5-.4,10.9-.4,13.2,0,5.1.8,9.1,2.3,11.9,1.6,2.8,4.5,4.3,8.7,4.3s10.2-.8,17-2.6l-3.8,21.9c-8,2.1-15.9,3.2-23.9,3.2s-18-2.1-22.8-6.2c-4.8-4.1-7.2-11.2-7.2-21.3s.5-14.9,1.5-30.7c1-15.8,1.6-25.6,1.9-29.4h-14.9l.8-20.9h15.8l1.1-19.4,27.5-6-.9,25.3h26.6l-.9,20.9Z"/>
          <path id="Layer-23" data-name="Layer" d="M2271.1,1486.1l-.6,14.3h.4c7.1-11.2,16.6-16.8,28.5-16.8s5.9.4,9.2,1.1l.8,24.9c-4.3-1.4-8.1-2.1-11.5-2.1-7.4,0-13.3,2.2-17.9,6.6-4.6,4.4-7.6,10.5-9.2,18.3-1.7,8.4-2.5,23.8-2.5,46.4v13.2h-29.6c2.7-42.3,4.1-77.6,4.1-105.9h28.3Z"/>
          <path id="Layer-24" data-name="Layer" class="cls-10" d="M2378.9,1483.6c17,0,30.7,4.7,41.1,14.2,10.4,9.4,15.6,22.6,15.6,39.5s-.5,9.2-1.5,13.9c-1,4.8-2.9,9.8-5.7,15.1-2.8,5.3-6.3,10-10.5,14.1-4.3,4-10.1,7.4-17.4,10.1-7.3,2.7-15.6,4.1-25,4.1s-19.2-1.6-26.9-4.9c-7.7-3.3-13.7-7.6-17.8-13-4.1-5.4-7.2-11-9.2-16.8-2-5.8-3-11.9-3-18.1,0-17.9,5.5-32,16.6-42.5,11.1-10.4,25.6-15.7,43.7-15.7ZM2378.7,1504.5c-10.4,0-18,3.6-23,10.8-5,7.2-7.4,16.2-7.4,27.2s2.4,16.4,7.2,22.4c4.8,6,11.6,8.9,20.4,8.9s17.4-3.6,22.5-10.8c5-7.2,7.6-15.9,7.6-26.3s-2.2-17.2-6.7-23.2c-4.5-6-11.3-8.9-20.6-8.9Z"/>
          <path id="Layer-25" data-name="Layer" d="M2488.8,1486.1l-1.1,17.2h.4c8.1-13.2,21.7-19.8,40.7-19.8s39.6,11.2,39.6,33.7-.5,12.8-1.5,30.2c-1,17.5-1.5,32.3-1.5,44.5h-31.5c3.3-24.1,4.9-44.7,4.9-61.8s-7.5-22.8-22.6-22.8-14.4,2.6-19.3,7.7-8.1,11.8-9.7,20c-1.9,9.5-3.1,28.5-3.6,56.9h-30.5c3.3-35.5,5.2-70.8,5.8-105.9h29.8Z"/>
          <path id="Layer-26" data-name="Layer" d="M2595.3,1486.1h30.9c-2.5,28.3-3.9,63.5-4,105.9h-31.7c3-31.2,4.6-66.5,4.9-105.9ZM2626.2,1468.3h-30.2l.4-20h30.7l-.9,20Z"/>
          <path id="Layer-27" data-name="Layer" d="M2731.2,1567.7l-3.6,23.2c-9.9,2.4-19.7,3.6-29.4,3.6-16.9,0-29.9-4.6-39.1-13.7-9.2-9.2-13.7-22.2-13.7-39.1s0-4.1.1-6c0-1.8.5-4.9,1.3-9.2s1.8-8.1,3.1-11.4c1.3-3.3,3.3-7.1,6.2-11.3,2.8-4.2,6.2-7.7,10-10.4,3.8-2.8,8.8-5.1,15-7,6.2-1.9,13.2-2.9,21-2.9s21.3,1.4,31.1,4.1l1.7,23c-10.2-3.4-19.4-5.1-27.5-5.1s-18.5,3.2-24.1,9.7c-5.5,6.5-8.3,15-8.3,25.7s2.6,17.7,7.7,23.3c5.1,5.6,12.6,8.4,22.6,8.4s16.5-1.6,26-4.9Z"/>
          <path id="Layer-28" data-name="Layer" class="cls-9" d="M2827.4,1449.9h69.7c19.6,0,35.4,5.2,47.3,15.7,11.9,10.4,17.9,26.8,17.9,49.1s-6.7,42-20.1,56.1c-13.4,14.1-33.3,21.2-59.7,21.2h-61.3c4.3-44.3,6.4-91.7,6.4-142.1ZM2857.5,1472.5l-4.1,96.9h22.8c10.2,0,19.1-1.6,26.5-4.7,7.4-3.1,13.2-7.4,17.4-12.8,4.1-5.4,7.1-11.2,8.9-17.5,1.8-6.2,2.8-13,2.8-20.2s-.6-10.2-1.8-14.8c-1.2-4.6-3.2-9-6-13.2s-6.8-7.5-11.9-10c-5.2-2.5-11.3-3.7-18.4-3.7h-36.2Z"/>
          <path id="Layer-29" data-name="Layer" d="M3037.2,1574.3l-5.3,18.3c-6.4,1.3-12.9,1.9-19.6,1.9s-14.9-1.1-20.3-3.2c-5.5-2.1-9.3-4.9-11.6-8.4-2.3-3.5-3.8-6.6-4.7-9.5-.8-2.8-1.3-5.8-1.3-8.9,0-6.7,1.9-12.4,5.5-17.1,3.7-4.8,8.3-8.2,13.9-10.4,5.5-2.2,11.6-4.2,18.1-6,6.5-1.8,12.6-3.2,18.1-4.4,5.5-1.1,10.1-2.9,13.8-5.3,3.7-2.4,5.5-5.4,5.5-8.9,0-7.8-6.5-11.7-19.4-11.7s-26.1,3-41.5,8.9l3.2-19.8c17.2-4.1,32.5-6.2,46-6.2,27.6,0,41.3,9.2,41.3,27.7s-.6,15.1-1.8,34.1c-1.2,19-1.8,34.6-1.8,46.7h-29.6c.9-7.7,2.1-25.9,3.6-54.7-2.3,2-6.2,3.9-11.8,5.8-5.6,1.8-10.9,3.4-15.8,4.7-4.9,1.3-9.3,3.4-13.2,6.3-3.9,2.9-5.9,6.6-5.9,11,0,8.4,6,12.6,17.9,12.6,5.1,0,10.7-1.1,16.6-3.2Z"/>
          <path id="Layer-30" data-name="Layer" d="M3166.3,1507h-26.6c-.1,1.7-.4,6.4-.8,14.2-.4,7.7-.8,14.9-1.1,21.4-.3,6.5-.4,10.9-.4,13.2,0,5.1.8,9.1,2.3,11.9,1.6,2.8,4.5,4.3,8.7,4.3s10.2-.8,17-2.6l-3.8,21.9c-8,2.1-15.9,3.2-23.9,3.2s-18-2.1-22.8-6.2c-4.8-4.1-7.2-11.2-7.2-21.3s.5-14.9,1.5-30.7c1-15.8,1.6-25.6,1.9-29.4h-14.9l.9-20.9h15.8l1.1-19.4,27.5-6-.9,25.3h26.6l-.8,20.9Z"/>
          <path id="Layer-31" data-name="Layer" d="M3237.7,1574.3l-5.3,18.3c-6.4,1.3-12.9,1.9-19.6,1.9s-14.9-1.1-20.4-3.2c-5.5-2.1-9.3-4.9-11.6-8.4-2.3-3.5-3.8-6.6-4.7-9.5-.9-2.8-1.3-5.8-1.3-8.9,0-6.7,1.8-12.4,5.5-17.1,3.7-4.8,8.3-8.2,13.9-10.4,5.5-2.2,11.6-4.2,18.1-6,6.5-1.8,12.6-3.2,18.1-4.4,5.5-1.1,10.2-2.9,13.9-5.3,3.7-2.4,5.5-5.4,5.5-8.9,0-7.8-6.5-11.7-19.4-11.7s-26.1,3-41.5,8.9l3.2-19.8c17.2-4.1,32.5-6.2,46-6.2,27.5,0,41.3,9.2,41.3,27.7s-.6,15.1-1.8,34.1c-1.2,19-1.8,34.6-1.8,46.7h-29.6c.9-7.7,2.1-25.9,3.6-54.7-2.3,2-6.2,3.9-11.8,5.8-5.6,1.8-10.9,3.4-15.8,4.7-4.9,1.3-9.3,3.4-13.2,6.3-3.9,2.9-5.9,6.6-5.9,11,0,8.4,6,12.6,17.9,12.6,5.1,0,10.6-1.1,16.6-3.2Z"/>
          <path id="Layer-32" data-name="Layer" class="cls-11" d="M3487.9,1451.4l1.3,24.5c-13.5-4-24.7-6-33.7-6-16.5,0-30,4.9-40.5,14.7-10.5,9.8-15.8,22.9-15.8,39.2s4.6,27,13.7,35.5c9.2,8.4,21.4,12.7,36.7,12.7s22.6-2.1,37.1-6.2l-3.8,24.9c-14.8,2.6-27.6,3.8-38.3,3.8-22.1,0-40.6-6-55.4-18s-22.2-29-22.2-51,7.7-44.1,23.2-57.7c15.5-13.6,35.8-20.4,60.9-20.4s22.7,1.3,36.6,4.1Z"/>
          <path id="Layer-33" data-name="Layer" class="cls-11" d="M3564.2,1574.3l-5.3,18.3c-6.4,1.3-12.9,1.9-19.6,1.9s-14.9-1.1-20.3-3.2c-5.5-2.1-9.3-4.9-11.6-8.4-2.3-3.5-3.8-6.6-4.7-9.5-.8-2.8-1.3-5.8-1.3-8.9,0-6.7,1.8-12.4,5.5-17.1,3.7-4.8,8.3-8.2,13.9-10.4,5.5-2.2,11.6-4.2,18.1-6,6.5-1.8,12.6-3.2,18.1-4.4s10.2-2.9,13.8-5.3c3.7-2.4,5.5-5.4,5.5-8.9,0-7.8-6.5-11.7-19.4-11.7s-26.1,3-41.5,8.9l3.2-19.8c17.2-4.1,32.5-6.2,46-6.2,27.5,0,41.3,9.2,41.3,27.7s-.6,15.1-1.8,34.1c-1.2,19-1.8,34.6-1.8,46.7h-29.6c.9-7.7,2.1-25.9,3.6-54.7-2.3,2-6.2,3.9-11.8,5.8-5.6,1.8-10.9,3.4-15.8,4.7-4.9,1.3-9.3,3.4-13.2,6.3-3.9,2.9-5.9,6.6-5.9,11,0,8.4,6,12.6,17.9,12.6,5.1,0,10.6-1.1,16.6-3.2Z"/>
          <path id="Layer-34" data-name="Layer" class="cls-9" d="M3656.9,1639.7h-30.5c4.1-50.8,6.4-100.9,6.8-150.2,20.9-4,38.6-6,53.2-6s17.9,1.2,25,3.7c7.2,2.5,12.7,5.6,16.7,9.3,4,3.7,7.2,8.1,9.6,13.3,2.4,5.2,4,9.9,4.7,14.3.7,4.3,1.1,8.9,1.1,13.7,0,15.6-4.2,29-12.5,40-8.3,11.1-20.1,16.6-35.2,16.6s-28-5.7-36.9-17h-.4l-1.7,62.2ZM3685,1504.5c-6.1,0-13.7,1.4-22.8,4.3-1.4,10.1-2.1,21.9-2.1,35.6s2.6,15.2,7.8,20.9c5.2,5.7,11.5,8.5,19.1,8.5s15.5-3.7,20.1-11.2c4.6-7.4,6.9-15.9,6.9-25.2s-2.4-17.9-7.2-23.9c-4.8-6-12.1-8.9-21.7-8.9Z"/>
          <path id="Layer-35" data-name="Layer" d="M3826.6,1507h-26.6c-.1,1.7-.4,6.4-.9,14.2-.4,7.7-.8,14.9-1.1,21.4-.3,6.5-.4,10.9-.4,13.2,0,5.1.8,9.1,2.4,11.9,1.6,2.8,4.5,4.3,8.7,4.3s10.2-.8,17-2.6l-3.8,21.9c-8,2.1-15.9,3.2-23.9,3.2s-18-2.1-22.8-6.2c-4.8-4.1-7.2-11.2-7.2-21.3s.5-14.9,1.5-30.7c1-15.8,1.6-25.6,1.9-29.4h-14.9l.8-20.9h15.8l1.1-19.4,27.5-6-.8,25.3h26.6l-.9,20.9Z"/>
          <path id="Layer-36" data-name="Layer" d="M3918.8,1592v-16.6h-.4c-7.1,12.8-20.1,19.2-39,19.2s-21.1-2.6-28.2-7.9c-7.2-5.2-10.8-13.5-10.8-24.7s.5-14.9,1.6-31.1c1.1-16.2,1.7-31.1,1.8-44.7h30.2c-2.7,27.7-4.1,48.4-4.1,62.2s7.2,22.4,21.7,22.4,13.6-2.2,18.2-6.7,7.6-10.5,9.1-18.2c1.7-9.1,2.8-29,3.4-59.6h29.8c-3.1,40.8-4.9,76-5.3,105.9h-28.1Z"/>
          <path id="Layer-37" data-name="Layer" d="M4007,1486.1l-.6,14.3h.4c7.1-11.2,16.6-16.8,28.5-16.8s5.9.4,9.2,1.1l.9,24.9c-4.3-1.4-8.1-2.1-11.5-2.1-7.4,0-13.4,2.2-17.9,6.6-4.6,4.4-7.6,10.5-9.2,18.3-1.7,8.4-2.6,23.8-2.6,46.4v13.2h-29.6c2.7-42.3,4.1-77.6,4.1-105.9h28.3Z"/>
          <path id="Layer-38" data-name="Layer" class="cls-10" d="M4160.4,1540.7h-76.2v3.4c0,9.7,3,17.2,8.9,22.7,6,5.5,13.8,8.2,23.7,8.2s20.9-2.3,35.3-6.8l-3.8,22.4c-11.9,2.7-23.4,4.1-34.5,4.1s-19.4-1.4-27.1-4.2c-7.7-2.8-13.5-6-17.5-9.8-4-3.8-7.1-8.2-9.5-13.4-2.4-5.2-3.8-9.6-4.4-13.2-.6-3.6-.9-7.3-.9-11.2s.4-9.1,1.1-13.6c.7-4.5,2.3-9.7,4.8-15.4,2.5-5.8,5.7-10.8,9.7-15,4-4.3,9.6-7.8,16.8-10.8,7.2-2.9,15.6-4.4,25.1-4.4,15.1,0,27.1,3.8,36.1,11.4s13.5,18.7,13.5,33.3-.4,7.8-1.3,12.4ZM4085,1526.4h48.4c0-8.5-1.7-14.8-5.1-19-3.4-4.1-9-6.2-16.8-6.2s-13.2,2.4-17.9,7.1-7.5,10.8-8.5,18Z"/>
        </g>
        <g id="Text_layer_62" class="cls-5">
          <text class="cls-4" transform="translate(0 208)"><tspan x="0" y="0">®</tspan></text>
        </g>
      </g>
      <g>
        <path d="M619.4,1358c12.4-122.6,21.7-263.6,27.9-422.9,6.2-159.3,9.3-299.2,9.3-419.8,49.4.8,90.7,1.2,124.1,1.2s70.9-.6,105.2-1.8c34.4-1.3,70.7-1.9,108.9-1.9s90.4,2.7,128,8c37.7,5.4,71.1,17.7,100.3,37.1,29.2,19.3,50.9,42.8,65.1,70.4,14.2,27.6,21.3,59.7,21.3,96.3s-2.7,45-8,65.7c-5.4,20.8-13.3,40.4-23.8,58.7-10.5,18.3-23,34.4-37.3,48.1-14.4,13.8-28.7,24.7-42.9,32.7-14.2,8-30.3,14.9-48.5,20.7-18.1,5.7-42.4,12.7-72.8,21l42,81.5c13.6,25.9,39.3,72.4,77.2,139.5l62.3,109.3c3.3,5.7,13.2,24.5,29.6,56.2-50.3-.8-83.6-1.3-99.7-1.3s-54.7.4-104.6,1.3l-68.4-164.2c-11.9-25.1-26.3-54.7-43.1-88.9l-74.6-150c-7.4-14-17.7-35-30.8-63,27.6,4.9,52.7,7.4,75.4,7.4,35.4,0,67.8-5.7,97-17.3,29.2-11.5,51.7-29.3,67.4-53.4,15.6-24.1,23.5-50.3,23.5-78.7s-3.4-33.4-10.2-48.2c-6.8-14.8-18.2-27.3-34.2-37.7-16-10.3-35.2-16.9-57.4-19.7-22.2-2.9-44.4-4.4-66.7-4.4s-29.2.2-50.6.6c-21.4.4-47.7.6-79,.6l-11,253.7-11.6,463-95.8-1.3c-15.3,0-46.3.4-93.3,1.3Z"/>
        <g>
          <g>
            <path class="cls-7" d="M477.4,664c-11.1-6.8-3.7-31.9-2.6-42,2.2-20.7,1.3-40.9-1.6-61.6-8.6-61-22.4-117.2,1.5-176.7,21.6-53.7,56.1-99.8,103.4-133.7,28-20.1,60.3-34.9,93-45.7,94.5-28.9,199.7-44.6,297.5-25.5,104.4,20.4,155.4,142.1,184.5,231,3.4,10.6,34.5,119.7,31.4,120.4,0,0-5.1,1.2-13.7,3.3-57.6,11.9-116.5,28.3-167.8,58.2,0,0-5.8,2.6-15.8,7-59.9,26.3-269.5,118.4-269.5,118.4l-170.7-12.1s-69.3-40.9-69.4-41Z"/>
            <path class="cls-7" d="M336.9,857.1c-8,11.4-13.1,29.7-7,43.2,15.7,34.9,53.1,16.8,72.3-.2,11.1-9.8,20.2-21.7,27.5-34.8,3-5.5,23-60.6,22.9-60.6,0,0-75.6-4.8-115.7,52.4Z"/>
            <path class="cls-13" d="M469.8,658.2s-132.4,198.2-132.9,198.9c35.4-52.9,113.1-11.4,160.3,2.2,37.6,10.9,75.2,23.1,113,32.7,0,0,147.9,37.3,238.8-61.9,0,0,126.3-159.8,154.5-241.6,0,0-182.7,51.6-283.5,36.3,0,0-233-27.5-250.2,33.4Z"/>
            <path class="cls-3" d="M743.2,186.7s-224.4,104.6-198.5,435.5"/>
            <path class="cls-3" d="M752.8,187s135.6-67,187.1,417.1"/>
            <path class="cls-12" d="M770.3,274.6c2.2,6.4-1.2,13.4-7.6,15.5-6.4,2.2-13.3-1.3-15.5-7.7-2.1-6.4,1.3-13.3,7.7-15.4,6.4-2.2,13.3,1.2,15.5,7.6Z"/>
            <path class="cls-12" d="M995.6,226.7c3,6.1,1.6,12.7-3.1,14.6-4.7,2-10.8-1.4-13.8-7.5-3-6.1-1.6-12.7,3.1-14.6,4.7-2,10.9,1.4,13.8,7.5Z"/>
            <path class="cls-12" d="M523.5,318.8c-4,5.8-4.7,12.2-1.6,14.4,3.2,2.3,9-.7,13-6.4,4-5.8,4.7-12.2,1.6-14.5-3.2-2.2-9,.7-13,6.4Z"/>
            <g>
              <path class="cls-12" d="M782.9,171.4c.6,4.5-9.6,9.6-22.8,11.3-13.2,1.8-24.3-.5-24.9-5.1-.6-4.5,9.6-9.6,22.8-11.3,13.1-1.7,24.3.6,24.9,5.1Z"/>
              <polyline class="cls-12" points="735.2 177.6 734.8 187.6 785.6 179.3 782.9 171.4"/>
            </g>
          </g>
          <g class="cls-14">
            <path class="cls-8" d="M464.7,943.9c14.8-8.6,30.1-16.3,46-23.1,21-3.1,41.8-7,62.1-11.8,20.4-4.8,40.4-10.3,59.9-16.7,17.7-4.9,34.8-10.8,51.3-17.6,51.8-15.3,103.2-43.4,127.6-87.5,60.7-106.5,119.2-198,220.6-265.9,9.8-10.1,18.8-21,26.6-32.9,7.7-11.9,14.2-24.8,19.1-39.1,4.6-14.7,7.3-30,8.1-45.5,1.5-31.2-4.7-63.5-21.2-96.4-21.7-42.9-49.7-72.8-88.5-102.7-17.2-8.5-29.1-22.4-48.4-26.6-35.4-9.5-67.7-20.1-103-18.9-17.8-.7-35.8-.6-53.8,0-54.2,1.8-109.1,7.2-159.8,4.3-15-2.1-27.9-8.5-40.9-14.8,7.5,1,15.1,12.8,18.3,11.7,102.9-7.2,203.5-36.6,303.5-39.6,14.3-.4,28.5-.3,42.8.4,45.1-.3,90.3,16.7,136.1,21.5,16.7,3.7,33.3,8.5,49.7,14.9,19.3,8.3,36.7,18.7,52.4,31,31.3,24.7,55.4,57.7,68.5,101.7,2.8,15.2,5.1,30.4,7.3,45.6,1.3,13.1,2.3,25.8,3.8,38.4,1.5,12.5,3.5,24.9,6.8,37.3,2.1,33.1,11.9,62.1,18.7,92.2,5.1,18,11.1,35.7,18.7,53,4.9,13.7,9.8,27.3,14.6,40.7,33.8,94.1,63.8,177.7,63.8,177.7,0,0-97,36-195.2,72.6-12.3,4.6-24.6,9.2-36.7,13.7-19.3,8.8-39.4,16.6-60,23.8-39.6,16.5-83.6,24.2-125.3,36.7-15.8,3.6-31.7,6.7-47.7,9.4-48,8.1-96.9,12.3-147,11.8-20.4.6-40.8.8-61.2,1-61.3.2-122.7-1.2-183.7-.8-33.9.2-54.1.3-54.1.3Z"/>
          </g>
          <path class="cls-2" d="M358.7,828.4c14.3-25.3,82.4-12.6,126.6,7.1,8.8,3.9,17.7,7.9,26.5,11.6,10.7,4.8,22.1,9.3,34,13.3,11.9,4,24.2,7.6,36.9,10.6,66.2,15.7,139.6,15.8,200.7-17.2,53.9-29.1,83.2-74.4,115-123.8,28.1-43.5,57.3-92.1,87.1-134.2"/>
        </g>
      </g>
    </g>
  </g>
</svg>