<svg id="Layer_1" data-name="Layer 1" xmlns="http://www.w3.org/2000/svg" xmlns:xlink="http://www.w3.org/1999/xlink" viewBox="0 0 223.07 51.95"><defs><style>.cls-1,.cls-2,.cls-3{fill:none;}.cls-2,.cls-3{clip-path:url(#clip-path);}.cls-3{clip-rule:evenodd;}.cls-4{clip-path:url(#clip-path-13);}.cls-5{fill:#303030;}.cls-6{clip-path:url(#clip-path-14);}.cls-7{clip-path:url(#clip-path-15);}.cls-8{clip-path:url(#clip-path-16);}.cls-9{clip-path:url(#clip-path-17);}.cls-10{clip-path:url(#clip-path-18);}.cls-11{clip-path:url(#clip-path-19);}.cls-12{clip-path:url(#clip-path-20);}.cls-13{clip-path:url(#clip-path-21);}.cls-14{clip-path:url(#clip-path-22);}.cls-15{clip-path:url(#clip-path-23);}.cls-16{clip-path:url(#clip-path-24);}</style><clipPath id="clip-path"><rect class="cls-1" x="199" y="375.43" width="214" height="43"/></clipPath><clipPath id="clip-path-13" transform="translate(-194 -371)"><path class="cls-2" d="M205.36,415.43l-1-2.69H201l-1,2.69h-.88l3.1-8.44h.89l3.1,8.44Zm-2.65-7.56h0s-.18.7-.32,1.09L201.23,412h2.9L203,409c-.14-.4-.32-1.09-.32-1.09Zm4.18,6.83.44-.59a2.59,2.59,0,0,0,1.8.73c.65,0,1.21-.32,1.21-1,0-1.32-3.25-1-3.25-3,0-1.08,1-1.67,2.06-1.67a2.54,2.54,0,0,1,1.86.66l-.37.62a2.14,2.14,0,0,0-1.51-.55c-.61,0-1.2.26-1.2.94,0,1.33,3.25,1,3.25,3a1.83,1.83,0,0,1-2.06,1.69,3.08,3.08,0,0,1-2.23-.88Zm5.32,0,.44-.59a2.59,2.59,0,0,0,1.8.73c.65,0,1.21-.32,1.21-1,0-1.32-3.25-1-3.25-3,0-1.08,1-1.67,2.06-1.67a2.54,2.54,0,0,1,1.86.66l-.37.62a2.14,2.14,0,0,0-1.51-.55c-.61,0-1.2.26-1.2.94,0,1.33,3.25,1,3.25,3a1.83,1.83,0,0,1-2.06,1.69,3.08,3.08,0,0,1-2.23-.88Zm5.39-2.28a3,3,0,0,1,3-3.17,2.52,2.52,0,0,1,2.52,2.78c0,.14,0,.42,0,.42h-4.63a2.27,2.27,0,0,0,2.34,2.39,2.81,2.81,0,0,0,1.84-.73l.37.62a3.46,3.46,0,0,1-2.23.84,3.05,3.05,0,0,1-3.16-3.16Zm.88-.64h3.79a1.7,1.7,0,0,0-1.72-1.85,2,2,0,0,0-2.08,1.85Zm5.69,2.92.44-.59a2.59,2.59,0,0,0,1.8.73c.65,0,1.21-.32,1.21-1,0-1.32-3.25-1-3.25-3,0-1.08,1-1.67,2.06-1.67a2.54,2.54,0,0,1,1.86.66l-.37.62a2.14,2.14,0,0,0-1.51-.55c-.61,0-1.2.26-1.2.94,0,1.33,3.25,1,3.25,3a1.83,1.83,0,0,1-2.06,1.69,3.07,3.07,0,0,1-2.23-.88Zm5.32,0,.44-.59a2.59,2.59,0,0,0,1.8.73c.65,0,1.21-.32,1.21-1,0-1.32-3.25-1-3.25-3,0-1.08,1-1.67,2.06-1.67a2.54,2.54,0,0,1,1.86.66l-.37.62a2.14,2.14,0,0,0-1.51-.55c-.61,0-1.2.26-1.2.94,0,1.33,3.25,1,3.25,3a1.83,1.83,0,0,1-2.06,1.69,3.07,3.07,0,0,1-2.23-.88Zm5.81.73v-6h.8v.9c0,.26,0,.48,0,.48h0a2.47,2.47,0,0,1,2.18-1.52,1.67,1.67,0,0,1,1.87,1.51h0a2.45,2.45,0,0,1,2.22-1.51c1.46,0,2,.85,2,2.34v3.84h-.82V411.8c0-1-.2-1.8-1.31-1.8a2.15,2.15,0,0,0-1.91,1.7,2.87,2.87,0,0,0-.11.88v2.86h-.82V411.8c0-.91-.13-1.8-1.27-1.8a2.22,2.22,0,0,0-2,1.78,3.51,3.51,0,0,0-.08.8v2.86Zm10.57-3a3,3,0,0,1,3-3.17,2.52,2.52,0,0,1,2.52,2.78c0,.14,0,.42,0,.42h-4.63a2.27,2.27,0,0,0,2.34,2.39,2.81,2.81,0,0,0,1.84-.73l.37.62a3.46,3.46,0,0,1-2.23.84,3.05,3.05,0,0,1-3.16-3.16Zm.88-.64h3.79a1.7,1.7,0,0,0-1.72-1.85,2,2,0,0,0-2.08,1.85Zm6.18,3.65v-6h.8v.9c0,.26,0,.48,0,.48h0a2.57,2.57,0,0,1,2.41-1.52c1.49,0,2,.85,2,2.34v3.84h-.82v-3.62c0-.95-.14-1.79-1.31-1.79a2.29,2.29,0,0,0-2.2,1.7,3,3,0,0,0-.1.82v2.89Zm7.34-2.2v-3.08h-.79v-.68h.8v-1.74h.8v1.74h1.51v.68h-1.51v3c0,1.42.9,1.6,1.36,1.6a1.4,1.4,0,0,0,.28,0v.73a2.15,2.15,0,0,1-.35,0,2,2,0,0,1-2.1-2.24Zm9.16,2.2v-7.69h-3V407h6.89v.74h-3v7.69Zm3.34-3a3.19,3.19,0,1,1,3.19,3.19,3.12,3.12,0,0,1-3.19-3.19Zm.84,0a2.35,2.35,0,1,0,4.7,0,2.35,2.35,0,1,0-4.7,0Zm6.62,0a3.19,3.19,0,1,1,3.19,3.19,3.12,3.12,0,0,1-3.19-3.19Zm.84,0a2.35,2.35,0,1,0,4.7,0,2.35,2.35,0,1,0-4.7,0Zm7,1.62v-7h.82v6.83c0,.79.36.91.67.91h.2v.73a2.07,2.07,0,0,1-.3,0c-.5,0-1.39-.16-1.39-1.48Zm2.53.7.44-.59a2.59,2.59,0,0,0,1.8.73c.65,0,1.21-.32,1.21-1,0-1.32-3.25-1-3.25-3,0-1.08,1-1.67,2.06-1.67a2.54,2.54,0,0,1,1.86.66l-.37.62a2.14,2.14,0,0,0-1.51-.55c-.61,0-1.2.26-1.2.94,0,1.33,3.25,1,3.25,3a1.83,1.83,0,0,1-2.06,1.69,3.07,3.07,0,0,1-2.23-.88Zm9.31.73v-5.28h-.76v-.68h.76v-.29a2,2,0,0,1,2.09-2.24,2.5,2.5,0,0,1,.37,0v.73a1.62,1.62,0,0,0-.29,0c-.47,0-1.36.17-1.36,1.51v.29h1.55v.68h-1.55v5.28Zm3.07-3a3.19,3.19,0,1,1,3.19,3.19,3.12,3.12,0,0,1-3.19-3.19Zm.84,0a2.35,2.35,0,1,0,4.7,0,2.35,2.35,0,1,0-4.7,0Zm7.07,3v-6h.8v1.07c0,.26,0,.48,0,.48h0a2.06,2.06,0,0,1,1.91-1.61,1.63,1.63,0,0,1,.32,0v.8a2.06,2.06,0,0,0-.3,0,1.93,1.93,0,0,0-1.75,1.56,4,4,0,0,0-.17,1.18v2.54Zm7.74,0V407h.83v7.69h3.91v.74Zm5.56-3a3,3,0,0,1,3-3.17,2.52,2.52,0,0,1,2.52,2.78c0,.14,0,.42,0,.42H325a2.27,2.27,0,0,0,2.34,2.39,2.81,2.81,0,0,0,1.84-.73l.37.62a3.46,3.46,0,0,1-2.23.84,3.05,3.05,0,0,1-3.16-3.16Zm.88-.64h3.79a1.7,1.7,0,0,0-1.72-1.85,2,2,0,0,0-2.08,1.85Zm5.69,2c0-2,2.65-2.09,3.7-2.09h.34v-.16a1.36,1.36,0,0,0-1.5-1.56,2.94,2.94,0,0,0-1.7.58l-.38-.62a3.47,3.47,0,0,1,2.15-.68,2.06,2.06,0,0,1,2.26,2.32v3.86h-.78v-.66a4.77,4.77,0,0,1,0-.5h0a2.18,2.18,0,0,1-2,1.31,1.87,1.87,0,0,1-2.05-1.79Zm.84,0a1.2,1.2,0,0,0,1.34,1.14,2.1,2.1,0,0,0,1.85-2.24v-.26h-.35c-.95,0-2.84,0-2.84,1.37Zm5.89,1.69v-6h.8v1.07c0,.26,0,.48,0,.48h0a2.06,2.06,0,0,1,1.91-1.61,1.63,1.63,0,0,1,.32,0v.8a2.06,2.06,0,0,0-.3,0,1.93,1.93,0,0,0-1.75,1.56,4,4,0,0,0-.17,1.18v2.54Zm4.27,0v-6h.8v.9c0,.26,0,.48,0,.48h0a2.57,2.57,0,0,1,2.41-1.52c1.49,0,2,.85,2,2.34v3.84h-.82v-3.62c0-.95-.14-1.79-1.31-1.79a2.29,2.29,0,0,0-2.2,1.7,3,3,0,0,0-.1.82v2.89Zm7.09-7.42v-1h.85v1Zm0,7.42v-6h.82v6Zm2.78,0v-6h.8v.9c0,.26,0,.48,0,.48h0a2.57,2.57,0,0,1,2.41-1.52c1.49,0,2,.85,2,2.34v3.84h-.82v-3.62c0-.95-.14-1.79-1.31-1.79a2.29,2.29,0,0,0-2.2,1.7,3,3,0,0,0-.1.82v2.89Zm7.57,1.37a3.71,3.71,0,0,0,1.63.42c1.18,0,2.11-.55,2.11-1.9v-.55a4.17,4.17,0,0,1,0-.43h0A2,2,0,0,1,361,415.4c-1.62,0-2.69-1.28-2.69-3.1s1-3,2.62-3a2,2,0,0,1,2,1h0a1.38,1.38,0,0,1,0-.2v-.66h.79v5.89a2.59,2.59,0,0,1-2.89,2.66,4.42,4.42,0,0,1-2-.48l.31-.67Zm2-2.14c.95,0,1.79-.59,1.79-2.36s-.84-2.3-1.91-2.3-1.86.85-1.86,2.29.78,2.38,2,2.38Zm7.4-.17.49-.64a3.29,3.29,0,0,0,2.21.92,1.52,1.52,0,0,0,1.68-1.46c0-2.12-4.21-1.58-4.21-4.2a2.43,2.43,0,0,1,2.63-2.27,3.27,3.27,0,0,1,2.26.82l-.41.7a2.88,2.88,0,0,0-1.85-.72,1.61,1.61,0,0,0-1.78,1.45c0,2,4.21,1.43,4.21,4.2a2.33,2.33,0,0,1-2.56,2.28,3.72,3.72,0,0,1-2.68-1.08Zm5.83,3.1.31-.65a1.3,1.3,0,0,0,.72.28c.53,0,.9-.43,1.14-1l.37-.85-2.52-6h.9l1.78,4.4c.12.3.22.64.22.64h0a5.72,5.72,0,0,1,.2-.64l1.74-4.4h.89l-3,7.3a1.86,1.86,0,0,1-1.74,1.26,1.79,1.79,0,0,1-1.06-.36Zm6.4-2.89.44-.59a2.59,2.59,0,0,0,1.8.73c.65,0,1.21-.32,1.21-1,0-1.32-3.25-1-3.25-3,0-1.08,1-1.67,2.06-1.67a2.54,2.54,0,0,1,1.86.66l-.37.62a2.14,2.14,0,0,0-1.51-.55c-.61,0-1.2.26-1.2.94,0,1.33,3.25,1,3.25,3a1.83,1.83,0,0,1-2.06,1.69,3.07,3.07,0,0,1-2.23-.88Zm6-1.46v-3.08h-.79v-.68h.8v-1.74h.8v1.74h1.51v.68h-1.51v3c0,1.42.9,1.6,1.36,1.6a1.4,1.4,0,0,0,.28,0v.73a2.15,2.15,0,0,1-.35,0,2,2,0,0,1-2.1-2.24Zm3.37-.82a3,3,0,0,1,3-3.17,2.52,2.52,0,0,1,2.52,2.78c0,.14,0,.42,0,.42h-4.63a2.27,2.27,0,0,0,2.34,2.39,2.81,2.81,0,0,0,1.84-.73l.37.62a3.46,3.46,0,0,1-2.23.84,3.05,3.05,0,0,1-3.16-3.16Zm.88-.64h3.79a1.7,1.7,0,0,0-1.72-1.85,2,2,0,0,0-2.08,1.85Zm6.18,3.65v-6h.8v.9c0,.26,0,.48,0,.48h0a2.47,2.47,0,0,1,2.18-1.52,1.67,1.67,0,0,1,1.87,1.51h0a2.45,2.45,0,0,1,2.22-1.51c1.46,0,2,.85,2,2.34v3.84h-.82V411.8c0-1-.2-1.8-1.31-1.8a2.15,2.15,0,0,0-1.91,1.7,2.88,2.88,0,0,0-.11.88v2.86h-.82V411.8c0-.91-.13-1.8-1.27-1.8a2.22,2.22,0,0,0-2,1.78,3.51,3.51,0,0,0-.08.8v2.86Zm10.5-.73.44-.59a2.59,2.59,0,0,0,1.8.73c.65,0,1.21-.32,1.21-1,0-1.32-3.25-1-3.25-3,0-1.08,1-1.67,2.06-1.67a2.54,2.54,0,0,1,1.86.66l-.37.62A2.14,2.14,0,0,0,410,410c-.61,0-1.2.26-1.2.94,0,1.33,3.25,1,3.25,3a1.83,1.83,0,0,1-2.06,1.69,3.07,3.07,0,0,1-2.23-.88Z"/></clipPath><clipPath id="clip-path-14" transform="translate(-194 -371)"><path class="cls-3" d="M357.71,380.48a1.65,1.65,0,1,1,1.67-1.66,1.66,1.66,0,0,1-1.67,1.66Zm0-3.66a2,2,0,1,0,2,2,2,2,0,0,0-2-2Z"/></clipPath><clipPath id="clip-path-15" transform="translate(-194 -371)"><path class="cls-3" d="M357.76,378.88h-.47v-.83h.47c.31,0,.49.14.49.41s-.18.42-.49.42Zm.81-.42c0-.44-.29-.68-.81-.68H357v2h.34v-.6h.55l.37.6h.39l-.46-.67a.64.64,0,0,0,.42-.64Z"/></clipPath><clipPath id="clip-path-16" transform="translate(-194 -371)"><path class="cls-3" d="M227,386l-7.12,4.71a4.44,4.44,0,0,1,2-4.89,4.5,4.5,0,0,1,2.5-.81,4.15,4.15,0,0,1,2.63,1Zm2.41,5.69,0,0a5.43,5.43,0,0,1-2.05,2.37,4.82,4.82,0,0,1-2.65.85,4.48,4.48,0,0,1-3.09-1.29l10.31-6.82,0,0-.79-1.19a8.24,8.24,0,0,0-6.8-4,7.94,7.94,0,0,0-4.37,1.38,8,8,0,0,0-2.15,11.43,8.26,8.26,0,0,0,6.91,3.89,8.09,8.09,0,0,0,4.47-1.38,8.87,8.87,0,0,0,3.41-4.17l0,0-3.23-1Z"/></clipPath><clipPath id="clip-path-17" transform="translate(-194 -371)"><path class="cls-3" d="M202.66,379.27h3.11a5.59,5.59,0,0,1,2.76.44,3.59,3.59,0,0,1-1.92,6.52h-4v-7Zm7.86,9.94c-.17-.3-.31-.53-.42-.69a6.7,6.7,0,0,0-.14-12,11.09,11.09,0,0,0-4.1-.5H199v22h3.66V389.5h4l4.5,8.48h4.15l-4.8-8.77Z"/></clipPath><clipPath id="clip-path-18" transform="translate(-194 -371)"><path class="cls-3" d="M241.79,388.48c-1.52-.6-2.84-1.12-2.84-2.06,0-1.13,1.12-1.54,2.17-1.54a5.32,5.32,0,0,1,3.54,1.26l.32.32,1.5-2.81-.16-.18a7.15,7.15,0,0,0-5.16-1.8c-3.5,0-5.86,1.88-5.86,4.68,0,3.07,2.75,4.18,5,5.07,1.55.62,2.88,1.16,2.88,2.14s-1.11,1.57-2.2,1.57a6.27,6.27,0,0,1-4.14-1.68l-.29-.29-1.8,2.64.18.2a8.48,8.48,0,0,0,6,2.34c3.45,0,5.86-2,5.86-4.77,0-3.11-2.78-4.21-5-5.09"/></clipPath><clipPath id="clip-path-19" transform="translate(-194 -371)"><path class="cls-3" d="M257.51,384.91c2.38,0,4,2.06,4,5.13s-1.64,5.13-4.07,5.13c-2.61,0-4-2.56-4-5.1,0-4.79,3.12-5.16,4.07-5.16Zm.57-3.24a6.09,6.09,0,0,0-4.8,2V382h-3.36v22h3.6v-7.19q0-.17,0-.32a5.73,5.73,0,0,0,4.35,1.83c4.27,0,7.25-3.43,7.25-8.33s-2.83-8.33-7-8.33Z"/></clipPath><clipPath id="clip-path-20" transform="translate(-194 -371)"><path class="cls-3" d="M275.86,395.13a5,5,0,0,1-4.92-5.16,4.92,4.92,0,1,1,4.92,5.16Zm0-13.46a8.34,8.34,0,1,0,8.57,8.3,8.26,8.26,0,0,0-8.57-8.3Z"/></clipPath><clipPath id="clip-path-21" transform="translate(-194 -371)"><path class="cls-3" d="M296.5,381.67a6.63,6.63,0,0,0-5.4,2.63V382h-3.51V398h3.6v-7.49a6.83,6.83,0,0,1,.23-2,4.65,4.65,0,0,1,4.51-3.5c2.13,0,2.56,1.4,2.56,3.5V398h3.6V387.86c0-4.11-1.88-6.19-5.59-6.19"/></clipPath><clipPath id="clip-path-22" transform="translate(-194 -371)"><path class="cls-3" d="M316.86,390c0,3.8-2.1,5.16-4.07,5.16-2.38,0-4-2.06-4-5.13s1.64-5.13,4.07-5.13c2.74,0,4,2.64,4,5.1Zm-.09-14v7.4a5.75,5.75,0,0,0-4.37-1.73c-4.33,0-7.25,3.35-7.25,8.33s2.84,8.33,7.06,8.33a5.83,5.83,0,0,0,4.71-2.09V398h3.45V376Z"/></clipPath><clipPath id="clip-path-23" transform="translate(-194 -371)"><path class="cls-3" d="M335.18,382v7.49c0,2.7-1.58,5.43-4.61,5.43-2.11,0-2.53-1.33-2.53-3.47V382h-3.6v10.11c0,4.11,1.87,6.19,5.56,6.19a6.59,6.59,0,0,0,5.28-2.6V398h3.51V382h-3.6"/></clipPath><clipPath id="clip-path-24" transform="translate(-194 -371)"><path class="cls-3" d="M348.8,388.48c-1.52-.6-2.84-1.12-2.84-2.06,0-1.13,1.12-1.54,2.17-1.54a5.32,5.32,0,0,1,3.54,1.26l.32.32,1.5-2.81-.16-.18a7.15,7.15,0,0,0-5.16-1.8c-3.5,0-5.86,1.88-5.86,4.68,0,3.07,2.75,4.18,5,5.07,1.55.62,2.88,1.16,2.88,2.14s-1.11,1.57-2.2,1.57a6.27,6.27,0,0,1-4.14-1.68l-.29-.29-1.8,2.64.18.2a8.48,8.48,0,0,0,6,2.34c3.45,0,5.86-2,5.86-4.77,0-3.11-2.78-4.21-5-5.09"/></clipPath></defs><title>Respondus_Logo_Tagline_Vector</title><g class="cls-4"><rect class="cls-5" x="0.16" y="30.85" width="222.92" height="21.1"/></g><g class="cls-6"><rect x="156.72" y="0.83" width="13.99" height="14.01"/></g><g class="cls-7"><rect x="157.96" y="1.78" width="11.65" height="11.99"/></g><g class="cls-8"><rect class="cls-5" x="17.31" y="5.65" width="26.29" height="26.69"/></g><g class="cls-9"><rect class="cls-5" width="26.32" height="31.98"/></g><g class="cls-10"><rect class="cls-5" x="35.72" y="5.67" width="22.08" height="26.67"/></g><g class="cls-11"><rect class="cls-5" x="50.93" y="5.67" width="25.19" height="32.34"/></g><g class="cls-12"><rect class="cls-5" x="68.28" y="5.67" width="27.15" height="26.67"/></g><g class="cls-13"><rect class="cls-5" x="88.59" y="5.67" width="24.49" height="26.3"/></g><g class="cls-14"><rect class="cls-5" x="106.15" width="25.22" height="32.34"/></g><g class="cls-15"><rect class="cls-5" x="125.44" y="6.04" width="24.34" height="26.3"/></g><g class="cls-16"><rect class="cls-5" x="142.73" y="5.67" width="22.08" height="26.67"/></g></svg>