<svg width="501" height="89" viewBox="0 0 501 89" fill="none" xmlns="http://www.w3.org/2000/svg">
<path d="M118.874 57.0045C123.277 60.3828 129.147 61.8307 133.306 61.8307C138.932 61.8307 143.09 59.1763 143.09 54.1087C143.09 48.0759 137.464 47.1106 131.104 45.1801C124.255 43.2496 117.895 40.5952 117.895 31.9079C117.895 23.462 124.01 18.6357 133.306 18.6357C137.709 18.6357 143.335 19.8423 147.004 22.2554V28.7709C142.601 25.8751 137.219 24.4272 133.061 24.4272C127.68 24.4272 124.01 26.5991 124.01 31.4253C124.01 37.2168 129.636 38.1821 135.262 39.8713C142.112 41.8018 148.961 44.4562 148.961 53.6261C148.961 62.3133 142.601 67.3809 133.061 67.3809C128.413 67.3809 122.787 66.1744 118.629 63.7612V57.0045H118.874ZM201.307 47.8346C201.307 44.6975 200.818 42.767 199.595 41.5605C198.372 40.1126 196.415 39.63 194.702 39.63C191.033 39.63 187.12 42.0431 184.673 44.6975V66.8983H178.803V47.8346C178.803 44.4562 178.314 42.767 177.335 41.5605C176.112 40.1126 174.155 39.63 172.443 39.63C168.529 39.63 164.86 42.0431 162.414 44.6975V66.8983H156.543V34.8037H162.414V38.6647H162.659C165.349 36.0103 169.263 34.0798 173.666 34.0798C177.58 34.0798 181.738 35.7689 183.695 39.63C187.609 36.0103 191.522 34.0798 196.17 34.0798C199.595 34.0798 202.774 35.2863 204.731 37.4581C206.688 39.63 207.422 42.5257 207.422 46.8693V66.8983H201.551V47.8346H201.307ZM216.962 65.2091C214.76 63.7612 213.537 61.3481 213.537 58.211C213.537 54.5913 215.25 51.9369 217.94 50.489C220.386 49.0411 223.811 48.3172 226.991 48.3172C229.437 48.3172 231.883 48.5585 233.84 49.2825V46.628C233.84 44.2149 233.351 42.5257 231.883 41.3191C230.66 40.1126 228.703 39.63 225.768 39.63C221.609 39.63 218.185 41.0778 215.739 42.767V36.9755C218.185 35.5276 221.854 34.3211 226.501 34.3211C230.415 34.3211 233.84 35.2863 236.286 37.2168C238.243 38.906 239.466 41.5605 239.466 45.6628V59.1763C239.466 61.1068 240.2 62.5547 241.912 62.5547C242.646 62.5547 243.379 62.3134 243.869 62.072V66.8983C243.624 67.1396 242.401 67.3809 241.178 67.3809C238.487 67.3809 236.041 66.1744 234.818 64.0025H234.574C232.617 65.6917 228.948 67.6222 224.545 67.6222C222.099 67.6222 219.163 66.8983 216.962 65.2091ZM234.084 59.6589V53.6261C232.372 53.1435 229.681 52.6608 227.725 52.6608C223.811 52.6608 219.652 53.8674 219.652 57.7284C219.652 60.8655 222.343 62.3133 225.768 62.3133C228.948 62.3133 231.883 61.1068 234.084 59.6589ZM249.739 34.8037H255.61V39.3886H255.855C258.056 36.2516 261.725 34.3211 265.394 34.3211C266.128 34.3211 266.862 34.3211 267.596 34.5624V40.3539C266.862 40.1126 266.128 40.1126 265.394 40.1126C260.991 40.1126 257.811 42.2844 255.855 45.9041V66.657H249.984V34.8037H249.739ZM278.603 55.7979V40.1126H272.488V34.8037H278.603V26.1164L284.474 25.1512V34.8037H294.258V40.1126H284.474V54.5913C284.474 58.4523 284.963 62.3133 289.366 62.3133C291.078 62.3133 293.035 61.8307 294.258 60.8655V66.4157C293.035 67.1396 290.589 67.6222 288.387 67.6222C285.941 67.6222 283.006 67.1396 281.049 64.7265C279.582 62.796 278.603 60.1415 278.603 55.7979ZM304.042 57.0045C308.445 60.3828 314.316 61.8307 318.474 61.8307C324.1 61.8307 328.259 59.1763 328.259 54.1087C328.259 48.0759 322.633 47.1106 316.273 45.1801C309.424 43.2496 303.064 40.5952 303.064 31.9079C303.064 23.462 309.179 18.6357 318.474 18.6357C322.877 18.6357 328.503 19.8423 332.172 22.2554V28.7709C327.769 25.8751 322.388 24.4272 318.23 24.4272C312.848 24.4272 309.179 26.5991 309.179 31.4253C309.179 37.2168 314.805 38.1821 320.431 39.8713C327.28 41.8018 334.129 44.4562 334.129 53.6261C334.129 62.3133 327.769 67.3809 318.23 67.3809C313.582 67.3809 307.956 66.1744 303.798 63.7612V57.0045H304.042ZM339.755 54.35V34.8037H345.626V53.3848C345.626 57.0045 346.115 58.6937 347.094 60.1415C348.317 61.8307 350.273 62.3133 352.23 62.3133C356.144 62.3133 360.058 59.6589 362.504 56.7632V34.8037H368.374V66.8983H362.504V62.796H362.259C359.324 65.6917 355.41 67.6222 351.007 67.6222C347.583 67.6222 344.403 66.4157 342.201 64.0025C340.734 61.8307 339.755 58.935 339.755 54.35ZM376.447 34.8037H382.317V39.3886H382.562C384.763 36.2516 388.432 34.3211 392.102 34.3211C392.835 34.3211 393.569 34.3211 394.303 34.5624V40.3539C393.569 40.1126 392.835 40.1126 392.102 40.1126C387.699 40.1126 384.519 42.2844 382.562 45.9041V66.657H376.691V34.8037H376.447ZM398.217 34.8037H404.577L410.692 49.2825C412.159 52.9022 413.382 56.0392 414.85 59.6589H415.095C416.562 56.0392 418.03 52.6608 419.498 49.0411L425.368 35.045H431.484L417.785 67.1396H411.915L398.217 34.8037ZM439.8 52.4195C440.779 58.6937 445.426 62.3133 451.786 62.3133C456.189 62.3133 460.103 60.6242 463.038 58.4523V64.7265C460.103 66.657 455.7 67.6222 451.297 67.6222C441.268 67.6222 433.685 60.8655 433.685 50.9717C433.685 41.0778 441.268 34.3211 449.829 34.3211C457.657 34.3211 464.75 39.8713 464.75 49.7651C464.75 50.7303 464.75 51.9369 464.506 52.6608H439.8V52.4195ZM440.045 47.8346H459.124C458.635 41.5605 453.743 39.3886 449.829 39.3886C445.671 39.3886 441.023 42.0431 440.045 47.8346ZM472.089 81.1357L480.894 63.2786L467.441 34.5624H474.045L479.671 46.628C481.139 50.0064 482.851 53.3848 484.074 56.2805H484.319C485.787 53.1435 487.254 50.0064 488.722 46.628L494.348 34.5624H500.708L478.693 80.8944H472.089V81.1357Z" fill="#263146"/>
<path fill-rule="evenodd" clip-rule="evenodd" d="M80.7416 22.7327L91.8536 6.01593L82.191 33.1503L86.5392 68.522C87.2639 75.0633 82.6741 81.1201 76.1518 82.0892L21.3162 88.8728C14.7939 89.5996 8.75469 84.9965 7.78842 78.4551L0.782989 23.4595C0.0582891 16.9182 4.64806 10.8614 11.1704 9.89227L66.2476 3.10867C71.8036 2.38186 77.1181 5.77366 79.0506 10.8614L80.7416 22.7327Z" fill="#F35321"/>
<path fill-rule="evenodd" clip-rule="evenodd" d="M24.7784 35.4463L42.2057 53.6294L87.7657 2.52C91.7491 -2.14865 96.2304 1.78284 93.7408 5.96006L50.4215 69.6011C46.936 74.2698 38.7203 74.7612 35.7327 69.8469L17.8075 41.835C13.3262 35.4463 20.0482 30.0405 24.7784 35.4463V35.4463Z" fill="white"/>
</svg>
